<svg width="372" height="34" viewBox="0 0 372 34" fill="none" xmlns="http://www.w3.org/2000/svg">
<path d="M1.32102 12V1.09091H5.13494C5.89489 1.09091 6.52166 1.2223 7.01527 1.48509C7.50888 1.74432 7.87642 2.0941 8.1179 2.53445C8.35938 2.97124 8.48011 3.45597 8.48011 3.98864C8.48011 4.45739 8.39666 4.84446 8.22976 5.14986C8.06641 5.45526 7.84979 5.69673 7.5799 5.87429C7.31357 6.05185 7.02415 6.18324 6.71165 6.26847V6.375C7.04545 6.39631 7.38104 6.51349 7.7184 6.72656C8.05575 6.93963 8.33807 7.24503 8.56534 7.64276C8.79261 8.04048 8.90625 8.52699 8.90625 9.10227C8.90625 9.64915 8.78196 10.141 8.53338 10.5778C8.2848 11.0146 7.8924 11.3608 7.35618 11.6165C6.81996 11.8722 6.12216 12 5.26278 12H1.32102ZM2.64205 10.8281H5.26278C6.12571 10.8281 6.73828 10.6612 7.1005 10.3274C7.46626 9.99006 7.64915 9.58168 7.64915 9.10227C7.64915 8.73295 7.55504 8.39205 7.36683 8.07955C7.17862 7.76349 6.91051 7.51136 6.5625 7.32315C6.21449 7.13139 5.80256 7.03551 5.3267 7.03551H2.64205V10.8281ZM2.64205 5.88494H5.09233C5.49006 5.88494 5.84872 5.80682 6.16832 5.65057C6.49148 5.49432 6.74716 5.27415 6.93537 4.99006C7.12713 4.70597 7.22301 4.37216 7.22301 3.98864C7.22301 3.50923 7.05611 3.10263 6.7223 2.76882C6.38849 2.43146 5.85938 2.26278 5.13494 2.26278H2.64205V5.88494ZM11.7161 15.0682C11.503 15.0682 11.313 15.0504 11.1461 15.0149C10.9792 14.983 10.8638 14.951 10.7999 14.919L11.1195 13.8111C11.4249 13.8892 11.6948 13.9176 11.9292 13.8963C12.1635 13.875 12.3713 13.7702 12.5524 13.582C12.737 13.3974 12.9057 13.0973 13.0584 12.6818L13.2928 12.0426L10.2672 3.81818H11.6309L13.8894 10.3381H13.9746L16.2331 3.81818H17.5968L14.1238 13.1932C13.9675 13.6158 13.774 13.9656 13.5431 14.2425C13.3123 14.5231 13.0442 14.7308 12.7388 14.8658C12.437 15.0007 12.0961 15.0682 11.7161 15.0682ZM29.2702 5.65057L28.141 5.97017C28.07 5.78196 27.9652 5.59908 27.8267 5.42152C27.6918 5.24041 27.5071 5.09126 27.2727 4.97408C27.0384 4.85689 26.7383 4.7983 26.3725 4.7983C25.8718 4.7983 25.4545 4.91371 25.1207 5.14453C24.7905 5.3718 24.6254 5.66122 24.6254 6.01278C24.6254 6.32528 24.739 6.57209 24.9663 6.7532C25.1935 6.9343 25.5487 7.08523 26.0316 7.20597L27.2461 7.50426C27.9776 7.68182 28.5227 7.95348 28.8814 8.31925C29.2401 8.68146 29.4194 9.14844 29.4194 9.72017C29.4194 10.1889 29.2844 10.608 29.0146 10.9773C28.7482 11.3466 28.3754 11.6378 27.896 11.8509C27.4165 12.0639 26.859 12.1705 26.2234 12.1705C25.3888 12.1705 24.6982 11.9893 24.1513 11.6271C23.6044 11.2649 23.2582 10.7358 23.1126 10.0398L24.3058 9.74148C24.4194 10.1818 24.6342 10.5121 24.9503 10.7322C25.2699 10.9524 25.6871 11.0625 26.2021 11.0625C26.788 11.0625 27.2532 10.9382 27.5977 10.6896C27.9457 10.4375 28.1197 10.1357 28.1197 9.78409C28.1197 9.5 28.0202 9.26207 27.8214 9.07031C27.6225 8.875 27.3171 8.7294 26.9052 8.63352L25.5415 8.31392C24.7923 8.13636 24.2418 7.86115 23.8903 7.48828C23.5423 7.11186 23.3683 6.64134 23.3683 6.0767C23.3683 5.61506 23.4979 5.20668 23.7571 4.85156C24.0199 4.49645 24.3768 4.21768 24.8278 4.01527C25.2823 3.81286 25.7972 3.71165 26.3725 3.71165C27.1822 3.71165 27.8178 3.8892 28.2795 4.24432C28.7447 4.59943 29.0749 5.06818 29.2702 5.65057ZM34.7421 12.1705C33.9537 12.1705 33.2737 11.9964 32.702 11.6484C32.1338 11.2969 31.6952 10.8068 31.3863 10.1783C31.0809 9.54616 30.9282 8.81108 30.9282 7.97301C30.9282 7.13494 31.0809 6.39631 31.3863 5.7571C31.6952 5.11435 32.1249 4.61364 32.6753 4.25497C33.2293 3.89276 33.8756 3.71165 34.6143 3.71165C35.0404 3.71165 35.4612 3.78267 35.8767 3.92472C36.2922 4.06676 36.6704 4.29759 37.0113 4.61719C37.3522 4.93324 37.6238 5.35227 37.8263 5.87429C38.0287 6.39631 38.1299 7.03906 38.1299 7.80256V8.33523H31.8231V7.24858H36.8515C36.8515 6.78693 36.7591 6.375 36.5745 6.01278C36.3934 5.65057 36.1341 5.3647 35.7968 5.15518C35.463 4.94567 35.0688 4.84091 34.6143 4.84091C34.1135 4.84091 33.6803 4.9652 33.3145 5.21378C32.9523 5.45881 32.6736 5.77841 32.4782 6.17258C32.2829 6.56676 32.1853 6.98935 32.1853 7.44034V8.16477C32.1853 8.78267 32.2918 9.30646 32.5049 9.73615C32.7215 10.1623 33.0216 10.4872 33.4051 10.7109C33.7886 10.9311 34.2343 11.0412 34.7421 11.0412C35.0724 11.0412 35.3707 10.995 35.637 10.9027C35.9069 10.8068 36.1395 10.6648 36.3348 10.4766C36.5301 10.2848 36.681 10.0469 36.7876 9.76278L38.002 10.1037C37.8742 10.5156 37.6594 10.8778 37.3575 11.1903C37.0557 11.4993 36.6828 11.7408 36.2389 11.9148C35.795 12.0852 35.2961 12.1705 34.7421 12.1705ZM41.2993 1.09091V12H40.0422V1.09091H41.2993ZM47.0321 12.1705C46.2438 12.1705 45.5637 11.9964 44.992 11.6484C44.4238 11.2969 43.9853 10.8068 43.6763 10.1783C43.3709 9.54616 43.2182 8.81108 43.2182 7.97301C43.2182 7.13494 43.3709 6.39631 43.6763 5.7571C43.9853 5.11435 44.415 4.61364 44.9654 4.25497C45.5194 3.89276 46.1657 3.71165 46.9043 3.71165C47.3304 3.71165 47.7512 3.78267 48.1667 3.92472C48.5822 4.06676 48.9604 4.29759 49.3013 4.61719C49.6422 4.93324 49.9139 5.35227 50.1163 5.87429C50.3187 6.39631 50.4199 7.03906 50.4199 7.80256V8.33523H44.1131V7.24858H49.1415C49.1415 6.78693 49.0492 6.375 48.8645 6.01278C48.6834 5.65057 48.4242 5.3647 48.0868 5.15518C47.753 4.94567 47.3588 4.84091 46.9043 4.84091C46.4036 4.84091 45.9703 4.9652 45.6046 5.21378C45.2424 5.45881 44.9636 5.77841 44.7683 6.17258C44.573 6.56676 44.4753 6.98935 44.4753 7.44034V8.16477C44.4753 8.78267 44.5819 9.30646 44.7949 9.73615C45.0115 10.1623 45.3116 10.4872 45.6951 10.7109C46.0787 10.9311 46.5243 11.0412 47.0321 11.0412C47.3624 11.0412 47.6607 10.995 47.927 10.9027C48.1969 10.8068 48.4295 10.6648 48.6248 10.4766C48.8201 10.2848 48.9711 10.0469 49.0776 9.76278L50.2921 10.1037C50.1642 10.5156 49.9494 10.8778 49.6475 11.1903C49.3457 11.4993 48.9728 11.7408 48.5289 11.9148C48.085 12.0852 47.5861 12.1705 47.0321 12.1705ZM55.6561 12.1705C54.889 12.1705 54.2285 11.9893 53.6745 11.6271C53.1206 11.2649 52.6944 10.766 52.3961 10.1303C52.0978 9.49467 51.9487 8.76847 51.9487 7.9517C51.9487 7.12074 52.1014 6.38743 52.4068 5.75178C52.7157 5.11257 53.1454 4.61364 53.6958 4.25497C54.2498 3.89276 54.8961 3.71165 55.6348 3.71165C56.21 3.71165 56.7285 3.81818 57.1902 4.03125C57.6518 4.24432 58.03 4.54261 58.3248 4.92614C58.6195 5.30966 58.8024 5.7571 58.8734 6.26847H57.6163C57.5204 5.8956 57.3074 5.56534 56.9771 5.2777C56.6504 4.98651 56.21 4.84091 55.6561 4.84091C55.166 4.84091 54.7363 4.96875 54.367 5.22443C54.0012 5.47656 53.7154 5.83345 53.5094 6.2951C53.307 6.7532 53.2058 7.29119 53.2058 7.90909C53.2058 8.54119 53.3052 9.09162 53.5041 9.56037C53.7065 10.0291 53.9906 10.3931 54.3564 10.6523C54.7257 10.9116 55.1589 11.0412 55.6561 11.0412C55.9828 11.0412 56.2793 10.9844 56.5456 10.8707C56.812 10.7571 57.0375 10.5938 57.2221 10.3807C57.4068 10.1676 57.5382 9.91193 57.6163 9.61364H58.8734C58.8024 10.0966 58.6266 10.5316 58.3461 10.9187C58.0691 11.3022 57.7015 11.6076 57.2434 11.8349C56.7889 12.0586 56.2598 12.1705 55.6561 12.1705ZM64.2694 3.81818V4.88352H60.0293V3.81818H64.2694ZM61.2651 1.85795H62.5222V9.65625C62.5222 10.0114 62.5737 10.2777 62.6767 10.4553C62.7832 10.6293 62.9181 10.7464 63.0815 10.8068C63.2484 10.8636 63.4242 10.892 63.6088 10.892C63.7473 10.892 63.861 10.8849 63.9498 10.8707C64.0385 10.853 64.1096 10.8388 64.1628 10.8281L64.4185 11.9574C64.3333 11.9893 64.2143 12.0213 64.0616 12.0533C63.9089 12.0888 63.7154 12.1065 63.481 12.1065C63.1259 12.1065 62.7779 12.0302 62.437 11.8775C62.0996 11.7248 61.8191 11.4922 61.5953 11.1797C61.3752 10.8672 61.2651 10.473 61.2651 9.99716V1.85795ZM66.1603 12V3.81818H67.4174V12H66.1603ZM66.7995 2.45455C66.5545 2.45455 66.3432 2.37109 66.1657 2.20419C65.9917 2.03729 65.9047 1.83665 65.9047 1.60227C65.9047 1.3679 65.9917 1.16726 66.1657 1.00035C66.3432 0.833452 66.5545 0.75 66.7995 0.75C67.0446 0.75 67.2541 0.833452 67.4281 1.00035C67.6056 1.16726 67.6944 1.3679 67.6944 1.60227C67.6944 1.83665 67.6056 2.03729 67.4281 2.20419C67.2541 2.37109 67.0446 2.45455 66.7995 2.45455ZM70.977 7.07812V12H69.7199V3.81818H70.9344V5.09659H71.0409C71.2327 4.68111 71.5239 4.3473 71.9145 4.09517C72.3051 3.83949 72.8094 3.71165 73.4273 3.71165C73.9813 3.71165 74.466 3.82528 74.8815 4.05256C75.297 4.27628 75.6201 4.61719 75.8509 5.07528C76.0818 5.52983 76.1972 6.10511 76.1972 6.80114V12H74.9401V6.88636C74.9401 6.24361 74.7732 5.7429 74.4394 5.38423C74.1056 5.02202 73.6475 4.84091 73.0651 4.84091C72.6638 4.84091 72.3051 4.92791 71.9891 5.10192C71.6766 5.27592 71.4298 5.52983 71.2487 5.86364C71.0676 6.19744 70.977 6.60227 70.977 7.07812ZM81.7969 15.2386C81.1896 15.2386 80.6676 15.1605 80.2308 15.0043C79.794 14.8516 79.43 14.6491 79.1388 14.397C78.8512 14.1484 78.6222 13.8821 78.4517 13.598L79.4531 12.8949C79.5668 13.044 79.7106 13.2145 79.8846 13.4062C80.0586 13.6016 80.2965 13.7702 80.5984 13.9123C80.9038 14.0579 81.3033 14.1307 81.7969 14.1307C82.4574 14.1307 83.0025 13.9709 83.4322 13.6513C83.8619 13.3317 84.0767 12.831 84.0767 12.1491V10.4872H83.9702C83.8778 10.6364 83.7464 10.821 83.576 11.0412C83.4091 11.2578 83.1676 11.4513 82.8516 11.6218C82.5391 11.7887 82.1165 11.8722 81.5838 11.8722C80.9233 11.8722 80.3303 11.7159 79.8047 11.4034C79.2827 11.0909 78.869 10.6364 78.5636 10.0398C78.2617 9.44318 78.1108 8.71875 78.1108 7.86648C78.1108 7.02841 78.2582 6.29865 78.5529 5.6772C78.8477 5.0522 79.2578 4.56925 79.7834 4.22834C80.3089 3.88388 80.9162 3.71165 81.6051 3.71165C82.1378 3.71165 82.5604 3.80043 82.8729 3.97798C83.1889 4.15199 83.4304 4.35085 83.5973 4.57457C83.7678 4.79474 83.8991 4.97585 83.9915 5.1179H84.1193V3.81818H85.3338V12.2344C85.3338 12.9375 85.174 13.5092 84.8544 13.9496C84.5384 14.3935 84.1122 14.7184 83.576 14.9244C83.0433 15.1339 82.4503 15.2386 81.7969 15.2386ZM81.7543 10.7429C82.2585 10.7429 82.6847 10.6275 83.0327 10.3967C83.3807 10.1658 83.6452 9.83381 83.8263 9.40057C84.0075 8.96733 84.098 8.44886 84.098 7.84517C84.098 7.25568 84.0092 6.73544 83.8317 6.28445C83.6541 5.83345 83.3913 5.48011 83.0433 5.22443C82.6953 4.96875 82.2656 4.84091 81.7543 4.84091C81.2216 4.84091 80.7777 4.97585 80.4226 5.24574C80.071 5.51562 79.8065 5.87784 79.6289 6.33239C79.4549 6.78693 79.3679 7.29119 79.3679 7.84517C79.3679 8.41335 79.4567 8.91584 79.6342 9.35263C79.8153 9.78587 80.0817 10.1268 80.4332 10.3754C80.7884 10.6204 81.2287 10.7429 81.7543 10.7429ZM95.1776 12.1705C94.4105 12.1705 93.75 11.9893 93.196 11.6271C92.642 11.2649 92.2159 10.766 91.9176 10.1303C91.6193 9.49467 91.4702 8.76847 91.4702 7.9517C91.4702 7.12074 91.6229 6.38743 91.9283 5.75178C92.2372 5.11257 92.6669 4.61364 93.2173 4.25497C93.7713 3.89276 94.4176 3.71165 95.1562 3.71165C95.7315 3.71165 96.25 3.81818 96.7116 4.03125C97.1733 4.24432 97.5515 4.54261 97.8462 4.92614C98.141 5.30966 98.3239 5.7571 98.3949 6.26847H97.1378C97.0419 5.8956 96.8288 5.56534 96.4986 5.2777C96.1719 4.98651 95.7315 4.84091 95.1776 4.84091C94.6875 4.84091 94.2578 4.96875 93.8885 5.22443C93.5227 5.47656 93.2369 5.83345 93.0309 6.2951C92.8285 6.7532 92.7273 7.29119 92.7273 7.90909C92.7273 8.54119 92.8267 9.09162 93.0256 9.56037C93.228 10.0291 93.5121 10.3931 93.8778 10.6523C94.2472 10.9116 94.6804 11.0412 95.1776 11.0412C95.5043 11.0412 95.8008 10.9844 96.0671 10.8707C96.3335 10.7571 96.5589 10.5938 96.7436 10.3807C96.9283 10.1676 97.0597 9.91193 97.1378 9.61364H98.3949C98.3239 10.0966 98.1481 10.5316 97.8675 10.9187C97.5906 11.3022 97.223 11.6076 96.7649 11.8349C96.3104 12.0586 95.7813 12.1705 95.1776 12.1705ZM100.233 12V3.81818H101.447V5.05398H101.532C101.681 4.64915 101.951 4.32067 102.342 4.06854C102.733 3.81641 103.173 3.69034 103.663 3.69034C103.755 3.69034 103.871 3.69212 104.009 3.69567C104.148 3.69922 104.252 3.70455 104.324 3.71165V4.99006C104.281 4.9794 104.183 4.96342 104.031 4.94212C103.881 4.91726 103.723 4.90483 103.556 4.90483C103.159 4.90483 102.804 4.98828 102.491 5.15518C102.182 5.31854 101.937 5.54581 101.756 5.837C101.578 6.12464 101.49 6.45312 101.49 6.82244V12H100.233ZM108.995 12.1705C108.207 12.1705 107.527 11.9964 106.955 11.6484C106.387 11.2969 105.948 10.8068 105.639 10.1783C105.334 9.54616 105.181 8.81108 105.181 7.97301C105.181 7.13494 105.334 6.39631 105.639 5.7571C105.948 5.11435 106.378 4.61364 106.928 4.25497C107.482 3.89276 108.129 3.71165 108.867 3.71165C109.293 3.71165 109.714 3.78267 110.13 3.92472C110.545 4.06676 110.923 4.29759 111.264 4.61719C111.605 4.93324 111.877 5.35227 112.079 5.87429C112.282 6.39631 112.383 7.03906 112.383 7.80256V8.33523H106.076V7.24858H111.104C111.104 6.78693 111.012 6.375 110.827 6.01278C110.646 5.65057 110.387 5.3647 110.05 5.15518C109.716 4.94567 109.322 4.84091 108.867 4.84091C108.366 4.84091 107.933 4.9652 107.567 5.21378C107.205 5.45881 106.926 5.77841 106.731 6.17258C106.536 6.56676 106.438 6.98935 106.438 7.44034V8.16477C106.438 8.78267 106.545 9.30646 106.758 9.73615C106.974 10.1623 107.275 10.4872 107.658 10.7109C108.042 10.9311 108.487 11.0412 108.995 11.0412C109.325 11.0412 109.624 10.995 109.89 10.9027C110.16 10.8068 110.392 10.6648 110.588 10.4766C110.783 10.2848 110.934 10.0469 111.04 9.76278L112.255 10.1037C112.127 10.5156 111.912 10.8778 111.61 11.1903C111.309 11.4993 110.936 11.7408 110.492 11.9148C110.048 12.0852 109.549 12.1705 108.995 12.1705ZM116.703 12.1918C116.184 12.1918 115.714 12.0941 115.291 11.8988C114.869 11.6999 114.533 11.4141 114.284 11.0412C114.036 10.6648 113.912 10.2102 113.912 9.67756C113.912 9.20881 114.004 8.82884 114.189 8.53764C114.373 8.2429 114.62 8.01207 114.929 7.84517C115.238 7.67827 115.579 7.55398 115.952 7.4723C116.328 7.38707 116.706 7.3196 117.086 7.26989C117.583 7.20597 117.987 7.15803 118.295 7.12607C118.608 7.09055 118.835 7.03196 118.977 6.95028C119.123 6.86861 119.196 6.72656 119.196 6.52415V6.48153C119.196 5.95597 119.052 5.54759 118.764 5.25639C118.48 4.9652 118.049 4.8196 117.47 4.8196C116.87 4.8196 116.399 4.95099 116.058 5.21378C115.717 5.47656 115.478 5.7571 115.339 6.0554L114.146 5.62926C114.359 5.1321 114.643 4.74503 114.998 4.46804C115.357 4.1875 115.748 3.99219 116.17 3.8821C116.596 3.76847 117.015 3.71165 117.427 3.71165C117.69 3.71165 117.992 3.74361 118.333 3.80753C118.677 3.8679 119.009 3.99396 119.329 4.18572C119.652 4.37749 119.92 4.6669 120.133 5.05398C120.346 5.44105 120.453 5.95952 120.453 6.60938V12H119.196V10.892H119.132C119.047 11.0696 118.904 11.2596 118.706 11.462C118.507 11.6644 118.242 11.8366 117.912 11.9787C117.582 12.1207 117.179 12.1918 116.703 12.1918ZM116.895 11.0625C117.392 11.0625 117.811 10.9648 118.152 10.7695C118.496 10.5742 118.755 10.3221 118.929 10.0131C119.107 9.70419 119.196 9.37926 119.196 9.03835V7.88778C119.142 7.9517 119.025 8.0103 118.844 8.06357C118.667 8.11328 118.461 8.15767 118.226 8.19673C117.995 8.23224 117.77 8.2642 117.55 8.29261C117.333 8.31747 117.157 8.33878 117.022 8.35653C116.696 8.39915 116.39 8.46839 116.106 8.56428C115.826 8.65661 115.598 8.79687 115.424 8.98509C115.254 9.16974 115.169 9.42187 115.169 9.74148C115.169 10.1783 115.33 10.5085 115.653 10.7322C115.98 10.9524 116.394 11.0625 116.895 11.0625ZM126.305 3.81818V4.88352H122.065V3.81818H126.305ZM123.301 1.85795H124.558V9.65625C124.558 10.0114 124.61 10.2777 124.713 10.4553C124.819 10.6293 124.954 10.7464 125.118 10.8068C125.285 10.8636 125.46 10.892 125.645 10.892C125.783 10.892 125.897 10.8849 125.986 10.8707C126.075 10.853 126.146 10.8388 126.199 10.8281L126.455 11.9574C126.369 11.9893 126.25 12.0213 126.098 12.0533C125.945 12.0888 125.752 12.1065 125.517 12.1065C125.162 12.1065 124.814 12.0302 124.473 11.8775C124.136 11.7248 123.855 11.4922 123.631 11.1797C123.411 10.8672 123.301 10.473 123.301 9.99716V1.85795ZM131.539 12.1705C130.751 12.1705 130.071 11.9964 129.499 11.6484C128.931 11.2969 128.492 10.8068 128.183 10.1783C127.878 9.54616 127.725 8.81108 127.725 7.97301C127.725 7.13494 127.878 6.39631 128.183 5.7571C128.492 5.11435 128.922 4.61364 129.472 4.25497C130.026 3.89276 130.672 3.71165 131.411 3.71165C131.837 3.71165 132.258 3.78267 132.674 3.92472C133.089 4.06676 133.467 4.29759 133.808 4.61719C134.149 4.93324 134.421 5.35227 134.623 5.87429C134.826 6.39631 134.927 7.03906 134.927 7.80256V8.33523H128.62V7.24858H133.648C133.648 6.78693 133.556 6.375 133.371 6.01278C133.19 5.65057 132.931 5.3647 132.594 5.15518C132.26 4.94567 131.866 4.84091 131.411 4.84091C130.91 4.84091 130.477 4.9652 130.111 5.21378C129.749 5.45881 129.47 5.77841 129.275 6.17258C129.08 6.56676 128.982 6.98935 128.982 7.44034V8.16477C128.982 8.78267 129.089 9.30646 129.302 9.73615C129.518 10.1623 129.818 10.4872 130.202 10.7109C130.585 10.9311 131.031 11.0412 131.539 11.0412C131.869 11.0412 132.168 10.995 132.434 10.9027C132.704 10.8068 132.936 10.6648 133.132 10.4766C133.327 10.2848 133.478 10.0469 133.584 9.76278L134.799 10.1037C134.671 10.5156 134.456 10.8778 134.154 11.1903C133.853 11.4993 133.48 11.7408 133.036 11.9148C132.592 12.0852 132.093 12.1705 131.539 12.1705ZM143.465 12.1918C142.947 12.1918 142.476 12.0941 142.054 11.8988C141.631 11.6999 141.296 11.4141 141.047 11.0412C140.799 10.6648 140.674 10.2102 140.674 9.67756C140.674 9.20881 140.767 8.82884 140.951 8.53764C141.136 8.2429 141.383 8.01207 141.692 7.84517C142.001 7.67827 142.342 7.55398 142.714 7.4723C143.091 7.38707 143.469 7.3196 143.849 7.26989C144.346 7.20597 144.749 7.15803 145.058 7.12607C145.371 7.09055 145.598 7.03196 145.74 6.95028C145.886 6.86861 145.958 6.72656 145.958 6.52415V6.48153C145.958 5.95597 145.815 5.54759 145.527 5.25639C145.243 4.9652 144.811 4.8196 144.233 4.8196C143.632 4.8196 143.162 4.95099 142.821 5.21378C142.48 5.47656 142.24 5.7571 142.102 6.0554L140.909 5.62926C141.122 5.1321 141.406 4.74503 141.761 4.46804C142.12 4.1875 142.51 3.99219 142.933 3.8821C143.359 3.76847 143.778 3.71165 144.19 3.71165C144.453 3.71165 144.755 3.74361 145.095 3.80753C145.44 3.8679 145.772 3.99396 146.092 4.18572C146.415 4.37749 146.683 4.6669 146.896 5.05398C147.109 5.44105 147.215 5.95952 147.215 6.60938V12H145.958V10.892H145.894C145.809 11.0696 145.667 11.2596 145.468 11.462C145.269 11.6644 145.005 11.8366 144.675 11.9787C144.344 12.1207 143.941 12.1918 143.465 12.1918ZM143.657 11.0625C144.154 11.0625 144.573 10.9648 144.914 10.7695C145.259 10.5742 145.518 10.3221 145.692 10.0131C145.87 9.70419 145.958 9.37926 145.958 9.03835V7.88778C145.905 7.9517 145.788 8.0103 145.607 8.06357C145.429 8.11328 145.223 8.15767 144.989 8.19673C144.758 8.23224 144.533 8.2642 144.312 8.29261C144.096 8.31747 143.92 8.33878 143.785 8.35653C143.458 8.39915 143.153 8.46839 142.869 8.56428C142.588 8.65661 142.361 8.79687 142.187 8.98509C142.017 9.16974 141.931 9.42187 141.931 9.74148C141.931 10.1783 142.093 10.5085 142.416 10.7322C142.743 10.9524 143.157 11.0625 143.657 11.0625ZM152.834 12.1705C152.067 12.1705 151.406 11.9893 150.852 11.6271C150.298 11.2649 149.872 10.766 149.574 10.1303C149.276 9.49467 149.126 8.76847 149.126 7.9517C149.126 7.12074 149.279 6.38743 149.585 5.75178C149.893 5.11257 150.323 4.61364 150.874 4.25497C151.428 3.89276 152.074 3.71165 152.812 3.71165C153.388 3.71165 153.906 3.81818 154.368 4.03125C154.83 4.24432 155.208 4.54261 155.502 4.92614C155.797 5.30966 155.98 5.7571 156.051 6.26847H154.794C154.698 5.8956 154.485 5.56534 154.155 5.2777C153.828 4.98651 153.388 4.84091 152.834 4.84091C152.344 4.84091 151.914 4.96875 151.545 5.22443C151.179 5.47656 150.893 5.83345 150.687 6.2951C150.485 6.7532 150.384 7.29119 150.384 7.90909C150.384 8.54119 150.483 9.09162 150.682 9.56037C150.884 10.0291 151.168 10.3931 151.534 10.6523C151.903 10.9116 152.337 11.0412 152.834 11.0412C153.161 11.0412 153.457 10.9844 153.723 10.8707C153.99 10.7571 154.215 10.5938 154.4 10.3807C154.585 10.1676 154.716 9.91193 154.794 9.61364H156.051C155.98 10.0966 155.804 10.5316 155.524 10.9187C155.247 11.3022 154.879 11.6076 154.421 11.8349C153.967 12.0586 153.438 12.1705 152.834 12.1705ZM161.213 12.1705C160.446 12.1705 159.785 11.9893 159.231 11.6271C158.677 11.2649 158.251 10.766 157.953 10.1303C157.654 9.49467 157.505 8.76847 157.505 7.9517C157.505 7.12074 157.658 6.38743 157.963 5.75178C158.272 5.11257 158.702 4.61364 159.252 4.25497C159.806 3.89276 160.453 3.71165 161.191 3.71165C161.767 3.71165 162.285 3.81818 162.747 4.03125C163.208 4.24432 163.587 4.54261 163.881 4.92614C164.176 5.30966 164.359 5.7571 164.43 6.26847H163.173C163.077 5.8956 162.864 5.56534 162.534 5.2777C162.207 4.98651 161.767 4.84091 161.213 4.84091C160.723 4.84091 160.293 4.96875 159.924 5.22443C159.558 5.47656 159.272 5.83345 159.066 6.2951C158.864 6.7532 158.762 7.29119 158.762 7.90909C158.762 8.54119 158.862 9.09162 159.061 9.56037C159.263 10.0291 159.547 10.3931 159.913 10.6523C160.282 10.9116 160.716 11.0412 161.213 11.0412C161.539 11.0412 161.836 10.9844 162.102 10.8707C162.369 10.7571 162.594 10.5938 162.779 10.3807C162.963 10.1676 163.095 9.91193 163.173 9.61364H164.43C164.359 10.0966 164.183 10.5316 163.903 10.9187C163.626 11.3022 163.258 11.6076 162.8 11.8349C162.346 12.0586 161.816 12.1705 161.213 12.1705ZM169.592 12.1705C168.853 12.1705 168.205 11.9947 167.647 11.6431C167.093 11.2915 166.66 10.7997 166.348 10.1676C166.039 9.53551 165.884 8.79687 165.884 7.9517C165.884 7.09943 166.039 6.35547 166.348 5.71982C166.66 5.08416 167.093 4.59055 167.647 4.23899C168.205 3.88743 168.853 3.71165 169.592 3.71165C170.33 3.71165 170.977 3.88743 171.531 4.23899C172.088 4.59055 172.521 5.08416 172.83 5.71982C173.143 6.35547 173.299 7.09943 173.299 7.9517C173.299 8.79687 173.143 9.53551 172.83 10.1676C172.521 10.7997 172.088 11.2915 171.531 11.6431C170.977 11.9947 170.33 12.1705 169.592 12.1705ZM169.592 11.0412C170.153 11.0412 170.614 10.8974 170.977 10.6097C171.339 10.3221 171.607 9.94389 171.781 9.47514C171.955 9.00639 172.042 8.49858 172.042 7.9517C172.042 7.40483 171.955 6.89524 171.781 6.42294C171.607 5.95064 171.339 5.56889 170.977 5.2777C170.614 4.98651 170.153 4.84091 169.592 4.84091C169.031 4.84091 168.569 4.98651 168.207 5.2777C167.844 5.56889 167.576 5.95064 167.402 6.42294C167.228 6.89524 167.141 7.40483 167.141 7.9517C167.141 8.49858 167.228 9.00639 167.402 9.47514C167.576 9.94389 167.844 10.3221 168.207 10.6097C168.569 10.8974 169.031 11.0412 169.592 11.0412ZM180.374 8.65483V3.81818H181.631V12H180.374V10.6151H180.289C180.097 11.0305 179.799 11.3839 179.394 11.6751C178.989 11.9627 178.478 12.1065 177.86 12.1065C177.349 12.1065 176.894 11.9947 176.496 11.771C176.099 11.5437 175.786 11.2028 175.559 10.7482C175.332 10.2901 175.218 9.71307 175.218 9.01705V3.81818H176.475V8.93182C176.475 9.52841 176.642 10.0043 176.976 10.3594C177.313 10.7145 177.743 10.892 178.265 10.892C178.577 10.892 178.895 10.8121 179.218 10.6523C179.545 10.4925 179.818 10.2475 180.039 9.91726C180.262 9.587 180.374 9.16619 180.374 8.65483ZM185.191 7.07812V12H183.934V3.81818H185.148V5.09659H185.255C185.447 4.68111 185.738 4.3473 186.128 4.09517C186.519 3.83949 187.023 3.71165 187.641 3.71165C188.195 3.71165 188.68 3.82528 189.095 4.05256C189.511 4.27628 189.834 4.61719 190.065 5.07528C190.296 5.52983 190.411 6.10511 190.411 6.80114V12H189.154V6.88636C189.154 6.24361 188.987 5.7429 188.653 5.38423C188.319 5.02202 187.861 4.84091 187.279 4.84091C186.878 4.84091 186.519 4.92791 186.203 5.10192C185.89 5.27592 185.644 5.52983 185.463 5.86364C185.281 6.19744 185.191 6.60227 185.191 7.07812ZM196.266 3.81818V4.88352H192.026V3.81818H196.266ZM193.262 1.85795H194.519V9.65625C194.519 10.0114 194.571 10.2777 194.674 10.4553C194.78 10.6293 194.915 10.7464 195.079 10.8068C195.245 10.8636 195.421 10.892 195.606 10.892C195.744 10.892 195.858 10.8849 195.947 10.8707C196.036 10.853 196.107 10.8388 196.16 10.8281L196.416 11.9574C196.33 11.9893 196.211 12.0213 196.059 12.0533C195.906 12.0888 195.712 12.1065 195.478 12.1065C195.123 12.1065 194.775 12.0302 194.434 11.8775C194.097 11.7248 193.816 11.4922 193.592 11.1797C193.372 10.8672 193.262 10.473 193.262 9.99716V1.85795ZM200.032 10.5085L199.947 11.0838C199.887 11.4886 199.794 11.9219 199.67 12.3835C199.549 12.8452 199.423 13.2802 199.292 13.6886C199.161 14.0969 199.052 14.4219 198.967 14.6634H198.008C198.054 14.4361 198.115 14.136 198.189 13.7631C198.264 13.3903 198.339 12.973 198.413 12.5114C198.491 12.0533 198.555 11.5845 198.605 11.1051L198.669 10.5085H200.032ZM207.39 15.0682C207.177 15.0682 206.987 15.0504 206.82 15.0149C206.653 14.983 206.538 14.951 206.474 14.919L206.793 13.8111C207.099 13.8892 207.369 13.9176 207.603 13.8963C207.837 13.875 208.045 13.7702 208.226 13.582C208.411 13.3974 208.58 13.0973 208.732 12.6818L208.967 12.0426L205.941 3.81818H207.305L209.563 10.3381H209.648L211.907 3.81818H213.271L209.798 13.1932C209.641 13.6158 209.448 13.9656 209.217 14.2425C208.986 14.5231 208.718 14.7308 208.413 14.8658C208.111 15.0007 207.77 15.0682 207.39 15.0682ZM217.961 12.1705C217.222 12.1705 216.574 11.9947 216.017 11.6431C215.463 11.2915 215.029 10.7997 214.717 10.1676C214.408 9.53551 214.253 8.79687 214.253 7.9517C214.253 7.09943 214.408 6.35547 214.717 5.71982C215.029 5.08416 215.463 4.59055 216.017 4.23899C216.574 3.88743 217.222 3.71165 217.961 3.71165C218.699 3.71165 219.346 3.88743 219.9 4.23899C220.457 4.59055 220.89 5.08416 221.199 5.71982C221.512 6.35547 221.668 7.09943 221.668 7.9517C221.668 8.79687 221.512 9.53551 221.199 10.1676C220.89 10.7997 220.457 11.2915 219.9 11.6431C219.346 11.9947 218.699 12.1705 217.961 12.1705ZM217.961 11.0412C218.522 11.0412 218.983 10.8974 219.346 10.6097C219.708 10.3221 219.976 9.94389 220.15 9.47514C220.324 9.00639 220.411 8.49858 220.411 7.9517C220.411 7.40483 220.324 6.89524 220.15 6.42294C219.976 5.95064 219.708 5.56889 219.346 5.2777C218.983 4.98651 218.522 4.84091 217.961 4.84091C217.4 4.84091 216.938 4.98651 216.576 5.2777C216.214 5.56889 215.945 5.95064 215.771 6.42294C215.597 6.89524 215.51 7.40483 215.51 7.9517C215.51 8.49858 215.597 9.00639 215.771 9.47514C215.945 9.94389 216.214 10.3221 216.576 10.6097C216.938 10.8974 217.4 11.0412 217.961 11.0412ZM228.743 8.65483V3.81818H230V12H228.743V10.6151H228.658C228.466 11.0305 228.168 11.3839 227.763 11.6751C227.358 11.9627 226.847 12.1065 226.229 12.1065C225.718 12.1065 225.263 11.9947 224.866 11.771C224.468 11.5437 224.155 11.2028 223.928 10.7482C223.701 10.2901 223.587 9.71307 223.587 9.01705V3.81818H224.844V8.93182C224.844 9.52841 225.011 10.0043 225.345 10.3594C225.682 10.7145 226.112 10.892 226.634 10.892C226.946 10.892 227.264 10.8121 227.587 10.6523C227.914 10.4925 228.188 10.2475 228.408 9.91726C228.631 9.587 228.743 9.16619 228.743 8.65483ZM239.846 12.1705C239.078 12.1705 238.418 11.9893 237.864 11.6271C237.31 11.2649 236.884 10.766 236.586 10.1303C236.287 9.49467 236.138 8.76847 236.138 7.9517C236.138 7.12074 236.291 6.38743 236.596 5.75178C236.905 5.11257 237.335 4.61364 237.885 4.25497C238.439 3.89276 239.086 3.71165 239.824 3.71165C240.4 3.71165 240.918 3.81818 241.38 4.03125C241.841 4.24432 242.219 4.54261 242.514 4.92614C242.809 5.30966 242.992 5.7571 243.063 6.26847H241.806C241.71 5.8956 241.497 5.56534 241.167 5.2777C240.84 4.98651 240.4 4.84091 239.846 4.84091C239.355 4.84091 238.926 4.96875 238.556 5.22443C238.191 5.47656 237.905 5.83345 237.699 6.2951C237.496 6.7532 237.395 7.29119 237.395 7.90909C237.395 8.54119 237.495 9.09162 237.694 9.56037C237.896 10.0291 238.18 10.3931 238.546 10.6523C238.915 10.9116 239.348 11.0412 239.846 11.0412C240.172 11.0412 240.469 10.9844 240.735 10.8707C241.001 10.7571 241.227 10.5938 241.412 10.3807C241.596 10.1676 241.728 9.91193 241.806 9.61364H243.063C242.992 10.0966 242.816 10.5316 242.536 10.9187C242.259 11.3022 241.891 11.6076 241.433 11.8349C240.978 12.0586 240.449 12.1705 239.846 12.1705ZM247.308 12.1918C246.79 12.1918 246.319 12.0941 245.897 11.8988C245.474 11.6999 245.138 11.4141 244.89 11.0412C244.641 10.6648 244.517 10.2102 244.517 9.67756C244.517 9.20881 244.609 8.82884 244.794 8.53764C244.979 8.2429 245.225 8.01207 245.534 7.84517C245.843 7.67827 246.184 7.55398 246.557 7.4723C246.934 7.38707 247.312 7.3196 247.692 7.26989C248.189 7.20597 248.592 7.15803 248.901 7.12607C249.213 7.09055 249.441 7.03196 249.583 6.95028C249.728 6.86861 249.801 6.72656 249.801 6.52415V6.48153C249.801 5.95597 249.657 5.54759 249.37 5.25639C249.086 4.9652 248.654 4.8196 248.075 4.8196C247.475 4.8196 247.005 4.95099 246.664 5.21378C246.323 5.47656 246.083 5.7571 245.945 6.0554L244.751 5.62926C244.964 5.1321 245.249 4.74503 245.604 4.46804C245.962 4.1875 246.353 3.99219 246.776 3.8821C247.202 3.76847 247.621 3.71165 248.033 3.71165C248.295 3.71165 248.597 3.74361 248.938 3.80753C249.283 3.8679 249.615 3.99396 249.934 4.18572C250.257 4.37749 250.526 4.6669 250.739 5.05398C250.952 5.44105 251.058 5.95952 251.058 6.60938V12H249.801V10.892H249.737C249.652 11.0696 249.51 11.2596 249.311 11.462C249.112 11.6644 248.848 11.8366 248.517 11.9787C248.187 12.1207 247.784 12.1918 247.308 12.1918ZM247.5 11.0625C247.997 11.0625 248.416 10.9648 248.757 10.7695C249.102 10.5742 249.361 10.3221 249.535 10.0131C249.712 9.70419 249.801 9.37926 249.801 9.03835V7.88778C249.748 7.9517 249.631 8.0103 249.45 8.06357C249.272 8.11328 249.066 8.15767 248.832 8.19673C248.601 8.23224 248.375 8.2642 248.155 8.29261C247.939 8.31747 247.763 8.33878 247.628 8.35653C247.301 8.39915 246.996 8.46839 246.712 8.56428C246.431 8.65661 246.204 8.79687 246.03 8.98509C245.859 9.16974 245.774 9.42187 245.774 9.74148C245.774 10.1783 245.936 10.5085 246.259 10.7322C246.586 10.9524 246.999 11.0625 247.5 11.0625ZM254.61 7.07812V12H253.353V3.81818H254.567V5.09659H254.674C254.866 4.68111 255.157 4.3473 255.547 4.09517C255.938 3.83949 256.442 3.71165 257.06 3.71165C257.614 3.71165 258.099 3.82528 258.514 4.05256C258.93 4.27628 259.253 4.61719 259.484 5.07528C259.715 5.52983 259.83 6.10511 259.83 6.80114V12H258.573V6.88636C258.573 6.24361 258.406 5.7429 258.072 5.38423C257.738 5.02202 257.28 4.84091 256.698 4.84091C256.297 4.84091 255.938 4.92791 255.622 5.10192C255.309 5.27592 255.063 5.52983 254.881 5.86364C254.7 6.19744 254.61 6.60227 254.61 7.07812ZM268.754 12.1918C268.235 12.1918 267.765 12.0941 267.342 11.8988C266.919 11.6999 266.584 11.4141 266.335 11.0412C266.087 10.6648 265.962 10.2102 265.962 9.67756C265.962 9.20881 266.055 8.82884 266.239 8.53764C266.424 8.2429 266.671 8.01207 266.98 7.84517C267.289 7.67827 267.63 7.55398 268.002 7.4723C268.379 7.38707 268.757 7.3196 269.137 7.26989C269.634 7.20597 270.037 7.15803 270.346 7.12607C270.659 7.09055 270.886 7.03196 271.028 6.95028C271.174 6.86861 271.246 6.72656 271.246 6.52415V6.48153C271.246 5.95597 271.103 5.54759 270.815 5.25639C270.531 4.9652 270.099 4.8196 269.521 4.8196C268.92 4.8196 268.45 4.95099 268.109 5.21378C267.768 5.47656 267.528 5.7571 267.39 6.0554L266.197 5.62926C266.41 5.1321 266.694 4.74503 267.049 4.46804C267.408 4.1875 267.798 3.99219 268.221 3.8821C268.647 3.76847 269.066 3.71165 269.478 3.71165C269.741 3.71165 270.043 3.74361 270.384 3.80753C270.728 3.8679 271.06 3.99396 271.38 4.18572C271.703 4.37749 271.971 4.6669 272.184 5.05398C272.397 5.44105 272.504 5.95952 272.504 6.60938V12H271.246V10.892H271.183C271.097 11.0696 270.955 11.2596 270.756 11.462C270.558 11.6644 270.293 11.8366 269.963 11.9787C269.632 12.1207 269.229 12.1918 268.754 12.1918ZM268.945 11.0625C269.442 11.0625 269.862 10.9648 270.202 10.7695C270.547 10.5742 270.806 10.3221 270.98 10.0131C271.158 9.70419 271.246 9.37926 271.246 9.03835V7.88778C271.193 7.9517 271.076 8.0103 270.895 8.06357C270.717 8.11328 270.511 8.15767 270.277 8.19673C270.046 8.23224 269.821 8.2642 269.6 8.29261C269.384 8.31747 269.208 8.33878 269.073 8.35653C268.746 8.39915 268.441 8.46839 268.157 8.56428C267.876 8.65661 267.649 8.79687 267.475 8.98509C267.305 9.16974 267.219 9.42187 267.219 9.74148C267.219 10.1783 267.381 10.5085 267.704 10.7322C268.031 10.9524 268.445 11.0625 268.945 11.0625ZM278.101 15.2386C277.493 15.2386 276.971 15.1605 276.535 15.0043C276.098 14.8516 275.734 14.6491 275.443 14.397C275.155 14.1484 274.926 13.8821 274.755 13.598L275.757 12.8949C275.87 13.044 276.014 13.2145 276.188 13.4062C276.362 13.6016 276.6 13.7702 276.902 13.9123C277.207 14.0579 277.607 14.1307 278.101 14.1307C278.761 14.1307 279.306 13.9709 279.736 13.6513C280.166 13.3317 280.38 12.831 280.38 12.1491V10.4872H280.274C280.182 10.6364 280.05 10.821 279.88 11.0412C279.713 11.2578 279.471 11.4513 279.155 11.6218C278.843 11.7887 278.42 11.8722 277.888 11.8722C277.227 11.8722 276.634 11.7159 276.108 11.4034C275.586 11.0909 275.173 10.6364 274.867 10.0398C274.565 9.44318 274.415 8.71875 274.415 7.86648C274.415 7.02841 274.562 6.29865 274.857 5.6772C275.151 5.0522 275.562 4.56925 276.087 4.22834C276.613 3.88388 277.22 3.71165 277.909 3.71165C278.441 3.71165 278.864 3.80043 279.177 3.97798C279.493 4.15199 279.734 4.35085 279.901 4.57457C280.071 4.79474 280.203 4.97585 280.295 5.1179H280.423V3.81818H281.638V12.2344C281.638 12.9375 281.478 13.5092 281.158 13.9496C280.842 14.3935 280.416 14.7184 279.88 14.9244C279.347 15.1339 278.754 15.2386 278.101 15.2386ZM278.058 10.7429C278.562 10.7429 278.988 10.6275 279.336 10.3967C279.684 10.1658 279.949 9.83381 280.13 9.40057C280.311 8.96733 280.402 8.44886 280.402 7.84517C280.402 7.25568 280.313 6.73544 280.135 6.28445C279.958 5.83345 279.695 5.48011 279.347 5.22443C278.999 4.96875 278.569 4.84091 278.058 4.84091C277.525 4.84091 277.081 4.97585 276.726 5.24574C276.375 5.51562 276.11 5.87784 275.933 6.33239C275.759 6.78693 275.672 7.29119 275.672 7.84517C275.672 8.41335 275.76 8.91584 275.938 9.35263C276.119 9.78587 276.385 10.1268 276.737 10.3754C277.092 10.6204 277.532 10.7429 278.058 10.7429ZM283.939 12V3.81818H285.153V5.05398H285.238C285.388 4.64915 285.657 4.32067 286.048 4.06854C286.439 3.81641 286.879 3.69034 287.369 3.69034C287.461 3.69034 287.577 3.69212 287.715 3.69567C287.854 3.69922 287.959 3.70455 288.03 3.71165V4.99006C287.987 4.9794 287.889 4.96342 287.737 4.94212C287.587 4.91726 287.429 4.90483 287.263 4.90483C286.865 4.90483 286.51 4.98828 286.197 5.15518C285.888 5.31854 285.643 5.54581 285.462 5.837C285.285 6.12464 285.196 6.45312 285.196 6.82244V12H283.939ZM292.701 12.1705C291.913 12.1705 291.233 11.9964 290.661 11.6484C290.093 11.2969 289.654 10.8068 289.345 10.1783C289.04 9.54616 288.887 8.81108 288.887 7.97301C288.887 7.13494 289.04 6.39631 289.345 5.7571C289.654 5.11435 290.084 4.61364 290.634 4.25497C291.188 3.89276 291.835 3.71165 292.573 3.71165C292.999 3.71165 293.42 3.78267 293.836 3.92472C294.251 4.06676 294.629 4.29759 294.97 4.61719C295.311 4.93324 295.583 5.35227 295.785 5.87429C295.988 6.39631 296.089 7.03906 296.089 7.80256V8.33523H289.782V7.24858H294.81C294.81 6.78693 294.718 6.375 294.533 6.01278C294.352 5.65057 294.093 5.3647 293.756 5.15518C293.422 4.94567 293.028 4.84091 292.573 4.84091C292.073 4.84091 291.639 4.9652 291.274 5.21378C290.911 5.45881 290.633 5.77841 290.437 6.17258C290.242 6.56676 290.144 6.98935 290.144 7.44034V8.16477C290.144 8.78267 290.251 9.30646 290.464 9.73615C290.68 10.1623 290.981 10.4872 291.364 10.7109C291.748 10.9311 292.193 11.0412 292.701 11.0412C293.031 11.0412 293.33 10.995 293.596 10.9027C293.866 10.8068 294.098 10.6648 294.294 10.4766C294.489 10.2848 294.64 10.0469 294.747 9.76278L295.961 10.1037C295.833 10.5156 295.618 10.8778 295.316 11.1903C295.015 11.4993 294.642 11.7408 294.198 11.9148C293.754 12.0852 293.255 12.1705 292.701 12.1705ZM301.432 12.1705C300.643 12.1705 299.963 11.9964 299.391 11.6484C298.823 11.2969 298.385 10.8068 298.076 10.1783C297.77 9.54616 297.618 8.81108 297.618 7.97301C297.618 7.13494 297.77 6.39631 298.076 5.7571C298.385 5.11435 298.814 4.61364 299.365 4.25497C299.919 3.89276 300.565 3.71165 301.304 3.71165C301.73 3.71165 302.151 3.78267 302.566 3.92472C302.982 4.06676 303.36 4.29759 303.701 4.61719C304.042 4.93324 304.313 5.35227 304.516 5.87429C304.718 6.39631 304.819 7.03906 304.819 7.80256V8.33523H298.513V7.24858H303.541C303.541 6.78693 303.449 6.375 303.264 6.01278C303.083 5.65057 302.824 5.3647 302.486 5.15518C302.152 4.94567 301.758 4.84091 301.304 4.84091C300.803 4.84091 300.37 4.9652 300.004 5.21378C299.642 5.45881 299.363 5.77841 299.168 6.17258C298.972 6.56676 298.875 6.98935 298.875 7.44034V8.16477C298.875 8.78267 298.981 9.30646 299.194 9.73615C299.411 10.1623 299.711 10.4872 300.095 10.7109C300.478 10.9311 300.924 11.0412 301.432 11.0412C301.762 11.0412 302.06 10.995 302.326 10.9027C302.596 10.8068 302.829 10.6648 303.024 10.4766C303.22 10.2848 303.37 10.0469 303.477 9.76278L304.691 10.1037C304.564 10.5156 304.349 10.8778 304.047 11.1903C303.745 11.4993 303.372 11.7408 302.928 11.9148C302.484 12.0852 301.986 12.1705 301.432 12.1705ZM314.274 12.1705C313.536 12.1705 312.888 11.9947 312.33 11.6431C311.776 11.2915 311.343 10.7997 311.03 10.1676C310.721 9.53551 310.567 8.79687 310.567 7.9517C310.567 7.09943 310.721 6.35547 311.03 5.71982C311.343 5.08416 311.776 4.59055 312.33 4.23899C312.888 3.88743 313.536 3.71165 314.274 3.71165C315.013 3.71165 315.659 3.88743 316.213 4.23899C316.771 4.59055 317.204 5.08416 317.513 5.71982C317.825 6.35547 317.982 7.09943 317.982 7.9517C317.982 8.79687 317.825 9.53551 317.513 10.1676C317.204 10.7997 316.771 11.2915 316.213 11.6431C315.659 11.9947 315.013 12.1705 314.274 12.1705ZM314.274 11.0412C314.835 11.0412 315.297 10.8974 315.659 10.6097C316.021 10.3221 316.29 9.94389 316.464 9.47514C316.638 9.00639 316.725 8.49858 316.725 7.9517C316.725 7.40483 316.638 6.89524 316.464 6.42294C316.29 5.95064 316.021 5.56889 315.659 5.2777C315.297 4.98651 314.835 4.84091 314.274 4.84091C313.713 4.84091 313.252 4.98651 312.889 5.2777C312.527 5.56889 312.259 5.95064 312.085 6.42294C311.911 6.89524 311.824 7.40483 311.824 7.9517C311.824 8.49858 311.911 9.00639 312.085 9.47514C312.259 9.94389 312.527 10.3221 312.889 10.6097C313.252 10.8974 313.713 11.0412 314.274 11.0412ZM325.057 8.65483V3.81818H326.314V12H325.057V10.6151H324.972C324.78 11.0305 324.482 11.3839 324.077 11.6751C323.672 11.9627 323.161 12.1065 322.543 12.1065C322.031 12.1065 321.577 11.9947 321.179 11.771C320.781 11.5437 320.469 11.2028 320.241 10.7482C320.014 10.2901 319.901 9.71307 319.901 9.01705V3.81818H321.158V8.93182C321.158 9.52841 321.325 10.0043 321.658 10.3594C321.996 10.7145 322.425 10.892 322.947 10.892C323.26 10.892 323.578 10.8121 323.901 10.6523C324.228 10.4925 324.501 10.2475 324.721 9.91726C324.945 9.587 325.057 9.16619 325.057 8.65483ZM328.616 12V3.81818H329.831V5.05398H329.916C330.065 4.64915 330.335 4.32067 330.726 4.06854C331.116 3.81641 331.557 3.69034 332.047 3.69034C332.139 3.69034 332.255 3.69212 332.393 3.69567C332.532 3.69922 332.636 3.70455 332.707 3.71165V4.99006C332.665 4.9794 332.567 4.96342 332.414 4.94212C332.265 4.91726 332.107 4.90483 331.94 4.90483C331.543 4.90483 331.187 4.98828 330.875 5.15518C330.566 5.31854 330.321 5.54581 330.14 5.837C329.962 6.12464 329.873 6.45312 329.873 6.82244V12H328.616ZM4.24006 30.1491C3.52273 30.1491 2.90483 30.0178 2.38636 29.755C1.8679 29.4922 1.46839 29.1317 1.18786 28.6737C0.907315 28.2156 0.767046 27.6918 0.767046 27.1023C0.767046 26.6477 0.862926 26.2447 1.05469 25.8931C1.25 25.538 1.51811 25.2095 1.85902 24.9077C2.20348 24.6023 2.59943 24.2969 3.04688 23.9915L4.62358 22.8196C4.93253 22.6172 5.17933 22.4006 5.36399 22.1697C5.5522 21.9389 5.64631 21.6371 5.64631 21.2642C5.64631 20.9872 5.52379 20.7191 5.27876 20.4599C5.03729 20.2006 4.71946 20.071 4.32528 20.071C4.0483 20.071 3.80327 20.142 3.5902 20.2841C3.38068 20.4226 3.21555 20.6001 3.09482 20.8168C2.97763 21.0298 2.91903 21.25 2.91903 21.4773C2.91903 21.733 2.98828 21.9922 3.12678 22.255C3.26882 22.5142 3.44815 22.7805 3.66477 23.054C3.88494 23.3239 4.11222 23.6009 4.34659 23.8849L9.35369 30H7.84091L3.70739 25.0142C3.32386 24.5526 2.97585 24.1335 2.66335 23.7571C2.35085 23.3807 2.10227 23.0096 1.91761 22.6438C1.73295 22.2781 1.64062 21.8821 1.64062 21.456C1.64062 20.9659 1.74893 20.5362 1.96555 20.1669C2.18572 19.794 2.4929 19.5046 2.88707 19.2987C3.2848 19.0891 3.75 18.9844 4.28267 18.9844C4.82955 18.9844 5.30007 19.0909 5.69425 19.304C6.08842 19.5135 6.39205 19.7923 6.60511 20.1403C6.81818 20.4847 6.92472 20.8594 6.92472 21.2642C6.92472 21.7862 6.7951 22.239 6.53587 22.6225C6.27663 23.006 5.9233 23.3629 5.47585 23.6932L3.30256 25.3125C2.8125 25.6747 2.48047 26.0263 2.30646 26.3672C2.13246 26.7081 2.04545 26.9531 2.04545 27.1023C2.04545 27.4432 2.13423 27.761 2.31179 28.0558C2.48935 28.3505 2.7397 28.5884 3.06286 28.7695C3.38601 28.9506 3.7642 29.0412 4.19744 29.0412C4.60938 29.0412 5.01065 28.9542 5.40128 28.7802C5.7919 28.6026 6.14524 28.3469 6.46129 28.0131C6.7809 27.6793 7.03303 27.2781 7.21768 26.8093C7.40589 26.3406 7.5 25.8132 7.5 25.2273H8.71449C8.71449 25.9517 8.63104 26.543 8.46413 27.0011C8.29723 27.4592 8.10902 27.8178 7.8995 28.0771C7.68999 28.3363 7.52131 28.5298 7.39347 28.6577C7.35085 28.7109 7.31179 28.7642 7.27628 28.8175C7.24077 28.8707 7.2017 28.924 7.15909 28.9773C6.80753 29.3714 6.36364 29.6662 5.82742 29.8615C5.29119 30.0533 4.76207 30.1491 4.24006 30.1491ZM17.3717 30.1918C16.8532 30.1918 16.3827 30.0941 15.9601 29.8988C15.5376 29.6999 15.202 29.4141 14.9534 29.0412C14.7048 28.6648 14.5805 28.2102 14.5805 27.6776C14.5805 27.2088 14.6729 26.8288 14.8575 26.5376C15.0422 26.2429 15.289 26.0121 15.5979 25.8452C15.9069 25.6783 16.2478 25.554 16.6206 25.4723C16.9971 25.3871 17.3753 25.3196 17.7552 25.2699C18.2524 25.206 18.6555 25.158 18.9644 25.1261C19.2769 25.0906 19.5042 25.032 19.6462 24.9503C19.7918 24.8686 19.8646 24.7266 19.8646 24.5241V24.4815C19.8646 23.956 19.7208 23.5476 19.4332 23.2564C19.1491 22.9652 18.7176 22.8196 18.1388 22.8196C17.5386 22.8196 17.0681 22.951 16.7272 23.2138C16.3863 23.4766 16.1466 23.7571 16.0081 24.0554L14.8149 23.6293C15.028 23.1321 15.3121 22.745 15.6672 22.468C16.0258 22.1875 16.4165 21.9922 16.839 21.8821C17.2652 21.7685 17.6842 21.7116 18.0961 21.7116C18.3589 21.7116 18.6608 21.7436 19.0017 21.8075C19.3461 21.8679 19.6782 21.994 19.9978 22.1857C20.3209 22.3775 20.589 22.6669 20.8021 23.054C21.0152 23.4411 21.1217 23.9595 21.1217 24.6094V30H19.8646V28.892H19.8007C19.7155 29.0696 19.5734 29.2596 19.3746 29.462C19.1757 29.6644 18.9111 29.8366 18.5809 29.9787C18.2506 30.1207 17.8476 30.1918 17.3717 30.1918ZM17.5635 29.0625C18.0606 29.0625 18.4797 28.9648 18.8206 28.7695C19.165 28.5742 19.4243 28.3221 19.5983 28.0131C19.7758 27.7042 19.8646 27.3793 19.8646 27.0384V25.8878C19.8113 25.9517 19.6942 26.0103 19.5131 26.0636C19.3355 26.1133 19.1295 26.1577 18.8952 26.1967C18.6643 26.2322 18.4388 26.2642 18.2187 26.2926C18.002 26.3175 17.8263 26.3388 17.6913 26.3565C17.3646 26.3991 17.0592 26.4684 16.7751 26.5643C16.4946 26.6566 16.2673 26.7969 16.0933 26.9851C15.9229 27.1697 15.8376 27.4219 15.8376 27.7415C15.8376 28.1783 15.9992 28.5085 16.3224 28.7322C16.6491 28.9524 17.0628 29.0625 17.5635 29.0625ZM26.7401 30.1705C25.973 30.1705 25.3125 29.9893 24.7585 29.6271C24.2045 29.2649 23.7784 28.766 23.4801 28.1303C23.1818 27.4947 23.0327 26.7685 23.0327 25.9517C23.0327 25.1207 23.1854 24.3874 23.4908 23.7518C23.7997 23.1126 24.2294 22.6136 24.7798 22.255C25.3338 21.8928 25.9801 21.7116 26.7188 21.7116C27.294 21.7116 27.8125 21.8182 28.2741 22.0312C28.7358 22.2443 29.114 22.5426 29.4087 22.9261C29.7035 23.3097 29.8864 23.7571 29.9574 24.2685H28.7003C28.6044 23.8956 28.3913 23.5653 28.0611 23.2777C27.7344 22.9865 27.294 22.8409 26.7401 22.8409C26.25 22.8409 25.8203 22.9687 25.451 23.2244C25.0852 23.4766 24.7994 23.8335 24.5934 24.2951C24.391 24.7532 24.2898 25.2912 24.2898 25.9091C24.2898 26.5412 24.3892 27.0916 24.5881 27.5604C24.7905 28.0291 25.0746 28.3931 25.4403 28.6523C25.8097 28.9116 26.2429 29.0412 26.7401 29.0412C27.0668 29.0412 27.3633 28.9844 27.6296 28.8707C27.896 28.7571 28.1214 28.5938 28.3061 28.3807C28.4908 28.1676 28.6222 27.9119 28.7003 27.6136H29.9574C29.8864 28.0966 29.7106 28.5316 29.43 28.9187C29.1531 29.3022 28.7855 29.6076 28.3274 29.8349C27.8729 30.0586 27.3438 30.1705 26.7401 30.1705ZM32.967 27.017L32.9457 25.4616H33.2013L36.7809 21.8182H38.3363L34.5224 25.6747H34.4158L32.967 27.017ZM31.7951 30V19.0909H33.0522V30H31.7951ZM36.994 30L33.7979 25.9517L34.6928 25.0781L38.592 30H36.994ZM41.2114 25.0781V30H39.9543V21.8182H41.1688V23.0966H41.2753C41.4671 22.6811 41.7583 22.3473 42.1489 22.0952C42.5395 21.8395 43.0438 21.7116 43.6617 21.7116C44.2156 21.7116 44.7004 21.8253 45.1159 22.0526C45.5313 22.2763 45.8545 22.6172 46.0853 23.0753C46.3161 23.5298 46.4316 24.1051 46.4316 24.8011V30H45.1744V24.8864C45.1744 24.2436 45.0075 23.7429 44.6737 23.3842C44.3399 23.022 43.8818 22.8409 43.2994 22.8409C42.8982 22.8409 42.5395 22.9279 42.2235 23.1019C41.911 23.2759 41.6642 23.5298 41.483 23.8636C41.3019 24.1974 41.2114 24.6023 41.2114 25.0781ZM52.0526 30.1705C51.3139 30.1705 50.6658 29.9947 50.1083 29.6431C49.5543 29.2915 49.1211 28.7997 48.8086 28.1676C48.4996 27.5355 48.3452 26.7969 48.3452 25.9517C48.3452 25.0994 48.4996 24.3555 48.8086 23.7198C49.1211 23.0842 49.5543 22.5906 50.1083 22.239C50.6658 21.8874 51.3139 21.7116 52.0526 21.7116C52.7912 21.7116 53.4375 21.8874 53.9915 22.239C54.549 22.5906 54.9822 23.0842 55.2912 23.7198C55.6037 24.3555 55.7599 25.0994 55.7599 25.9517C55.7599 26.7969 55.6037 27.5355 55.2912 28.1676C54.9822 28.7997 54.549 29.2915 53.9915 29.6431C53.4375 29.9947 52.7912 30.1705 52.0526 30.1705ZM52.0526 29.0412C52.6136 29.0412 53.0753 28.8974 53.4375 28.6097C53.7997 28.3221 54.0678 27.9439 54.2418 27.4751C54.4158 27.0064 54.5028 26.4986 54.5028 25.9517C54.5028 25.4048 54.4158 24.8952 54.2418 24.4229C54.0678 23.9506 53.7997 23.5689 53.4375 23.2777C53.0753 22.9865 52.6136 22.8409 52.0526 22.8409C51.4915 22.8409 51.0298 22.9865 50.6676 23.2777C50.3054 23.5689 50.0373 23.9506 49.8633 24.4229C49.6893 24.8952 49.6023 25.4048 49.6023 25.9517C49.6023 26.4986 49.6893 27.0064 49.8633 27.4751C50.0373 27.9439 50.3054 28.3221 50.6676 28.6097C51.0298 28.8974 51.4915 29.0412 52.0526 29.0412ZM59.2543 30L56.7614 21.8182H58.0824L59.8509 28.0824H59.9361L61.6832 21.8182H63.0256L64.7514 28.0611H64.8366L66.6051 21.8182H67.9261L65.4332 30H64.1974L62.4077 23.7145H62.2798L60.4901 30H59.2543ZM70.8452 19.0909V30H69.5881V19.0909H70.8452ZM76.578 30.1705C75.7897 30.1705 75.1096 29.9964 74.5379 29.6484C73.9697 29.2969 73.5312 28.8068 73.2222 28.1783C72.9168 27.5462 72.7641 26.8111 72.7641 25.973C72.7641 25.1349 72.9168 24.3963 73.2222 23.7571C73.5312 23.1143 73.9608 22.6136 74.5113 22.255C75.0653 21.8928 75.7116 21.7116 76.4502 21.7116C76.8763 21.7116 77.2971 21.7827 77.7126 21.9247C78.1281 22.0668 78.5063 22.2976 78.8472 22.6172C79.1881 22.9332 79.4598 23.3523 79.6622 23.8743C79.8646 24.3963 79.9658 25.0391 79.9658 25.8026V26.3352H73.659V25.2486H78.6874C78.6874 24.7869 78.5951 24.375 78.4104 24.0128C78.2293 23.6506 77.9701 23.3647 77.6327 23.1552C77.2989 22.9457 76.9047 22.8409 76.4502 22.8409C75.9495 22.8409 75.5162 22.9652 75.1505 23.2138C74.7883 23.4588 74.5095 23.7784 74.3142 24.1726C74.1189 24.5668 74.0212 24.9893 74.0212 25.4403V26.1648C74.0212 26.7827 74.1278 27.3065 74.3408 27.7362C74.5574 28.1623 74.8575 28.4872 75.241 28.7109C75.6246 28.9311 76.0702 29.0412 76.578 29.0412C76.9083 29.0412 77.2066 28.995 77.4729 28.9027C77.7428 28.8068 77.9754 28.6648 78.1707 28.4766C78.366 28.2848 78.517 28.0469 78.6235 27.7628L79.838 28.1037C79.7101 28.5156 79.4953 28.8778 79.1934 29.1903C78.8916 29.4993 78.5187 29.7408 78.0748 29.9148C77.6309 30.0852 77.132 30.1705 76.578 30.1705ZM84.9676 30.1705C84.2858 30.1705 83.6839 29.9982 83.1618 29.6538C82.6398 29.3058 82.2314 28.8157 81.9367 28.1836C81.642 27.5479 81.4946 26.7969 81.4946 25.9304C81.4946 25.071 81.642 24.3253 81.9367 23.6932C82.2314 23.0611 82.6416 22.5728 83.1672 22.2283C83.6927 21.8839 84.3 21.7116 84.9889 21.7116C85.5216 21.7116 85.9424 21.8004 86.2513 21.978C86.5638 22.152 86.8018 22.3509 86.9651 22.5746C87.132 22.7947 87.2616 22.9759 87.354 23.1179H87.4605V19.0909H88.7176V30H87.5031V28.7429H87.354C87.2616 28.892 87.1302 29.0803 86.9598 29.3075C86.7893 29.5312 86.5461 29.7319 86.23 29.9094C85.914 30.0835 85.4932 30.1705 84.9676 30.1705ZM85.1381 29.0412C85.6423 29.0412 86.0684 28.9098 86.4165 28.647C86.7645 28.3807 87.029 28.0131 87.2101 27.5444C87.3912 27.0721 87.4818 26.527 87.4818 25.9091C87.4818 25.2983 87.393 24.7638 87.2155 24.3058C87.0379 23.8441 86.7751 23.4854 86.4271 23.2298C86.0791 22.9705 85.6494 22.8409 85.1381 22.8409C84.6054 22.8409 84.1615 22.9776 83.8064 23.2511C83.4548 23.521 83.1903 23.8885 83.0127 24.3537C82.8387 24.8153 82.7517 25.3338 82.7517 25.9091C82.7517 26.4915 82.8405 27.0206 83.018 27.4964C83.1991 27.9687 83.4655 28.3452 83.817 28.6257C84.1721 28.9027 84.6125 29.0412 85.1381 29.0412ZM94.4971 33.2386C93.8898 33.2386 93.3678 33.1605 92.931 33.0043C92.4942 32.8516 92.1302 32.6491 91.839 32.397C91.5514 32.1484 91.3224 31.8821 91.1519 31.598L92.1533 30.8949C92.267 31.044 92.4108 31.2145 92.5848 31.4062C92.7588 31.6016 92.9967 31.7702 93.2986 31.9123C93.604 32.0579 94.0035 32.1307 94.4971 32.1307C95.1576 32.1307 95.7027 31.9709 96.1324 31.6513C96.5621 31.3317 96.7769 30.831 96.7769 30.1491V28.4872H96.6704C96.578 28.6364 96.4466 28.821 96.2762 29.0412C96.1093 29.2578 95.8678 29.4513 95.5518 29.6218C95.2393 29.7887 94.8167 29.8722 94.284 29.8722C93.6235 29.8722 93.0305 29.7159 92.5049 29.4034C91.9829 29.0909 91.5692 28.6364 91.2638 28.0398C90.9619 27.4432 90.811 26.7187 90.811 25.8665C90.811 25.0284 90.9584 24.2987 91.2531 23.6772C91.5479 23.0522 91.958 22.5692 92.4836 22.2283C93.0091 21.8839 93.6164 21.7116 94.3053 21.7116C94.838 21.7116 95.2606 21.8004 95.5731 21.978C95.8891 22.152 96.1306 22.3509 96.2975 22.5746C96.468 22.7947 96.5993 22.9759 96.6917 23.1179H96.8195V21.8182H98.034V30.2344C98.034 30.9375 97.8742 31.5092 97.5546 31.9496C97.2385 32.3935 96.8124 32.7184 96.2762 32.9244C95.7435 33.1339 95.1505 33.2386 94.4971 33.2386ZM94.4545 28.7429C94.9587 28.7429 95.3849 28.6275 95.7329 28.3967C96.0809 28.1658 96.3454 27.8338 96.5265 27.4006C96.7077 26.9673 96.7982 26.4489 96.7982 25.8452C96.7982 25.2557 96.7094 24.7354 96.5319 24.2844C96.3543 23.8335 96.0915 23.4801 95.7435 23.2244C95.3955 22.9687 94.9658 22.8409 94.4545 22.8409C93.9218 22.8409 93.4779 22.9759 93.1228 23.2457C92.7712 23.5156 92.5067 23.8778 92.3291 24.3324C92.1551 24.7869 92.0681 25.2912 92.0681 25.8452C92.0681 26.4134 92.1569 26.9158 92.3344 27.3526C92.5155 27.7859 92.7819 28.1268 93.1334 28.3754C93.4885 28.6204 93.9289 28.7429 94.4545 28.7429ZM103.766 30.1705C102.977 30.1705 102.297 29.9964 101.725 29.6484C101.157 29.2969 100.719 28.8068 100.41 28.1783C100.104 27.5462 99.9516 26.8111 99.9516 25.973C99.9516 25.1349 100.104 24.3963 100.41 23.7571C100.719 23.1143 101.148 22.6136 101.699 22.255C102.253 21.8928 102.899 21.7116 103.638 21.7116C104.064 21.7116 104.485 21.7827 104.9 21.9247C105.316 22.0668 105.694 22.2976 106.035 22.6172C106.376 22.9332 106.647 23.3523 106.85 23.8743C107.052 24.3963 107.153 25.0391 107.153 25.8026V26.3352H100.847V25.2486H105.875C105.875 24.7869 105.783 24.375 105.598 24.0128C105.417 23.6506 105.158 23.3647 104.82 23.1552C104.486 22.9457 104.092 22.8409 103.638 22.8409C103.137 22.8409 102.704 22.9652 102.338 23.2138C101.976 23.4588 101.697 23.7784 101.502 24.1726C101.306 24.5668 101.209 24.9893 101.209 25.4403V26.1648C101.209 26.7827 101.315 27.3065 101.528 27.7362C101.745 28.1623 102.045 28.4872 102.429 28.7109C102.812 28.9311 103.258 29.0412 103.766 29.0412C104.096 29.0412 104.394 28.995 104.66 28.9027C104.93 28.8068 105.163 28.6648 105.358 28.4766C105.554 28.2848 105.704 28.0469 105.811 27.7628L107.025 28.1037C106.898 28.5156 106.683 28.8778 106.381 29.1903C106.079 29.4993 105.706 29.7408 105.262 29.9148C104.818 30.0852 104.32 30.1705 103.766 30.1705ZM116.608 30.1705C115.87 30.1705 115.222 29.9947 114.664 29.6431C114.11 29.2915 113.677 28.7997 113.364 28.1676C113.055 27.5355 112.901 26.7969 112.901 25.9517C112.901 25.0994 113.055 24.3555 113.364 23.7198C113.677 23.0842 114.11 22.5906 114.664 22.239C115.222 21.8874 115.87 21.7116 116.608 21.7116C117.347 21.7116 117.993 21.8874 118.547 22.239C119.105 22.5906 119.538 23.0842 119.847 23.7198C120.159 24.3555 120.316 25.0994 120.316 25.9517C120.316 26.7969 120.159 27.5355 119.847 28.1676C119.538 28.7997 119.105 29.2915 118.547 29.6431C117.993 29.9947 117.347 30.1705 116.608 30.1705ZM116.608 29.0412C117.169 29.0412 117.631 28.8974 117.993 28.6097C118.355 28.3221 118.623 27.9439 118.797 27.4751C118.972 27.0064 119.059 26.4986 119.059 25.9517C119.059 25.4048 118.972 24.8952 118.797 24.4229C118.623 23.9506 118.355 23.5689 117.993 23.2777C117.631 22.9865 117.169 22.8409 116.608 22.8409C116.047 22.8409 115.585 22.9865 115.223 23.2777C114.861 23.5689 114.593 23.9506 114.419 24.4229C114.245 24.8952 114.158 25.4048 114.158 25.9517C114.158 26.4986 114.245 27.0064 114.419 27.4751C114.593 27.9439 114.861 28.3221 115.223 28.6097C115.585 28.8974 116.047 29.0412 116.608 29.0412ZM127.391 26.6548V21.8182H128.648V30H127.391V28.6151H127.306C127.114 29.0305 126.816 29.3839 126.411 29.6751C126.006 29.9627 125.494 30.1065 124.877 30.1065C124.365 30.1065 123.911 29.9947 123.513 29.771C123.115 29.5437 122.803 29.2028 122.575 28.7482C122.348 28.2901 122.235 27.7131 122.235 27.017V21.8182H123.492V26.9318C123.492 27.5284 123.659 28.0043 123.992 28.3594C124.33 28.7145 124.759 28.892 125.281 28.892C125.594 28.892 125.912 28.8121 126.235 28.6523C126.562 28.4925 126.835 28.2475 127.055 27.9173C127.279 27.587 127.391 27.1662 127.391 26.6548ZM130.95 30V21.8182H132.165V23.054H132.25C132.399 22.6491 132.669 22.3207 133.06 22.0685C133.45 21.8164 133.891 21.6903 134.381 21.6903C134.473 21.6903 134.589 21.6921 134.727 21.6957C134.866 21.6992 134.97 21.7045 135.041 21.7116V22.9901C134.999 22.9794 134.901 22.9634 134.748 22.9421C134.599 22.9173 134.441 22.9048 134.274 22.9048C133.877 22.9048 133.521 22.9883 133.209 23.1552C132.9 23.3185 132.655 23.5458 132.474 23.837C132.296 24.1246 132.207 24.4531 132.207 24.8224V30H130.95Z" fill="black" fill-opacity="0.5"/>
<path d="M337.99 2.26278V1.09091H346.172V2.26278H342.741V12H341.42V2.26278H337.99ZM350.284 12.1705C349.496 12.1705 348.816 11.9964 348.244 11.6484C347.676 11.2969 347.237 10.8068 346.928 10.1783C346.623 9.54616 346.47 8.81108 346.47 7.97301C346.47 7.13494 346.623 6.39631 346.928 5.7571C347.237 5.11435 347.667 4.61364 348.217 4.25497C348.771 3.89276 349.418 3.71165 350.156 3.71165C350.582 3.71165 351.003 3.78267 351.419 3.92472C351.834 4.06676 352.212 4.29759 352.553 4.61719C352.894 4.93324 353.166 5.35227 353.368 5.87429C353.571 6.39631 353.672 7.03906 353.672 7.80256V8.33523H347.365V7.24858H352.393C352.393 6.78693 352.301 6.375 352.116 6.01278C351.935 5.65057 351.676 5.3647 351.339 5.15518C351.005 4.94567 350.611 4.84091 350.156 4.84091C349.656 4.84091 349.222 4.9652 348.857 5.21378C348.494 5.45881 348.216 5.77841 348.02 6.17258C347.825 6.56676 347.727 6.98935 347.727 7.44034V8.16477C347.727 8.78267 347.834 9.30646 348.047 9.73615C348.263 10.1623 348.564 10.4872 348.947 10.7109C349.331 10.9311 349.776 11.0412 350.284 11.0412C350.614 11.0412 350.913 10.995 351.179 10.9027C351.449 10.8068 351.681 10.6648 351.877 10.4766C352.072 10.2848 352.223 10.0469 352.33 9.76278L353.544 10.1037C353.416 10.5156 353.201 10.8778 352.9 11.1903C352.598 11.4993 352.225 11.7408 351.781 11.9148C351.337 12.0852 350.838 12.1705 350.284 12.1705ZM355.584 12V3.81818H356.799V5.05398H356.884C357.033 4.64915 357.303 4.32067 357.694 4.06854C358.084 3.81641 358.525 3.69034 359.015 3.69034C359.107 3.69034 359.222 3.69212 359.361 3.69567C359.499 3.69922 359.604 3.70455 359.675 3.71165V4.99006C359.632 4.9794 359.535 4.96342 359.382 4.94212C359.233 4.91726 359.075 4.90483 358.908 4.90483C358.51 4.90483 358.155 4.98828 357.843 5.15518C357.534 5.31854 357.289 5.54581 357.108 5.837C356.93 6.12464 356.841 6.45312 356.841 6.82244V12H355.584ZM361.165 12V3.81818H362.38V5.09659H362.486C362.657 4.6598 362.932 4.32067 363.312 4.07919C363.692 3.83416 364.148 3.71165 364.681 3.71165C365.221 3.71165 365.67 3.83416 366.028 4.07919C366.391 4.32067 366.673 4.6598 366.875 5.09659H366.961C367.17 4.67401 367.484 4.33842 367.903 4.08984C368.323 3.83771 368.825 3.71165 369.411 3.71165C370.142 3.71165 370.741 3.9407 371.206 4.39879C371.671 4.85334 371.904 5.56179 371.904 6.52415V12H370.647V6.52415C370.647 5.92045 370.482 5.48899 370.151 5.22976C369.821 4.97053 369.432 4.84091 368.985 4.84091C368.41 4.84091 367.964 5.01491 367.648 5.36293C367.332 5.70739 367.174 6.14418 367.174 6.6733V12H365.895V6.39631C365.895 5.93111 365.744 5.55646 365.443 5.27237C365.141 4.98473 364.752 4.84091 364.276 4.84091C363.949 4.84091 363.644 4.92791 363.36 5.10192C363.079 5.27592 362.852 5.5174 362.678 5.82635C362.508 6.13175 362.422 6.48509 362.422 6.88636V12H361.165ZM148.378 22.5C148.261 22.1413 148.106 21.82 147.915 21.5359C147.726 21.2482 147.501 21.0032 147.238 20.8008C146.979 20.5984 146.684 20.4439 146.354 20.3374C146.024 20.2308 145.661 20.1776 145.267 20.1776C144.621 20.1776 144.033 20.3445 143.504 20.6783C142.975 21.0121 142.554 21.5039 142.242 22.1538C141.929 22.8036 141.773 23.6009 141.773 24.5455C141.773 25.4901 141.931 26.2873 142.247 26.9371C142.563 27.587 142.991 28.0788 143.531 28.4126C144.07 28.7464 144.678 28.9134 145.352 28.9134C145.977 28.9134 146.528 28.7802 147.004 28.5138C147.483 28.244 147.856 27.864 148.122 27.3739C148.392 26.8803 148.527 26.2997 148.527 25.6321L148.932 25.7173H145.651V24.5455H149.806V25.7173C149.806 26.6158 149.614 27.397 149.23 28.0611C148.85 28.7251 148.325 29.2401 147.654 29.6058C146.986 29.968 146.219 30.1491 145.352 30.1491C144.387 30.1491 143.538 29.9219 142.806 29.4673C142.078 29.0128 141.51 28.3665 141.102 27.5284C140.697 26.6903 140.494 25.696 140.494 24.5455C140.494 23.6825 140.61 22.9066 140.841 22.2177C141.075 21.5252 141.405 20.9357 141.831 20.4492C142.258 19.9627 142.762 19.5898 143.344 19.3306C143.927 19.0714 144.568 18.9418 145.267 18.9418C145.843 18.9418 146.379 19.0288 146.876 19.2028C147.377 19.3732 147.822 19.6165 148.213 19.9325C148.607 20.245 148.936 20.6197 149.198 21.0565C149.461 21.4897 149.642 21.9709 149.742 22.5H148.378ZM153.155 19.0909V30H151.898V19.0909H153.155ZM158.781 30.1705C158.042 30.1705 157.394 29.9947 156.837 29.6431C156.283 29.2915 155.85 28.7997 155.537 28.1676C155.228 27.5355 155.074 26.7969 155.074 25.9517C155.074 25.0994 155.228 24.3555 155.537 23.7198C155.85 23.0842 156.283 22.5906 156.837 22.239C157.394 21.8874 158.042 21.7116 158.781 21.7116C159.52 21.7116 160.166 21.8874 160.72 22.239C161.278 22.5906 161.711 23.0842 162.02 23.7198C162.332 24.3555 162.488 25.0994 162.488 25.9517C162.488 26.7969 162.332 27.5355 162.02 28.1676C161.711 28.7997 161.278 29.2915 160.72 29.6431C160.166 29.9947 159.52 30.1705 158.781 30.1705ZM158.781 29.0412C159.342 29.0412 159.804 28.8974 160.166 28.6097C160.528 28.3221 160.796 27.9439 160.97 27.4751C161.144 27.0064 161.231 26.4986 161.231 25.9517C161.231 25.4048 161.144 24.8952 160.97 24.4229C160.796 23.9506 160.528 23.5689 160.166 23.2777C159.804 22.9865 159.342 22.8409 158.781 22.8409C158.22 22.8409 157.758 22.9865 157.396 23.2777C157.034 23.5689 156.766 23.9506 156.592 24.4229C156.418 24.8952 156.331 25.4048 156.331 25.9517C156.331 26.4986 156.418 27.0064 156.592 27.4751C156.766 27.9439 157.034 28.3221 157.396 28.6097C157.758 28.8974 158.22 29.0412 158.781 29.0412ZM164.578 30V19.0909H165.835V23.1179H165.941C166.034 22.9759 166.162 22.7947 166.325 22.5746C166.492 22.3509 166.73 22.152 167.039 21.978C167.351 21.8004 167.774 21.7116 168.307 21.7116C168.995 21.7116 169.603 21.8839 170.128 22.2283C170.654 22.5728 171.064 23.0611 171.359 23.6932C171.653 24.3253 171.801 25.071 171.801 25.9304C171.801 26.7969 171.653 27.5479 171.359 28.1836C171.064 28.8157 170.656 29.3058 170.134 29.6538C169.612 29.9982 169.01 30.1705 168.328 30.1705C167.802 30.1705 167.381 30.0835 167.065 29.9094C166.749 29.7319 166.506 29.5312 166.336 29.3075C166.165 29.0803 166.034 28.892 165.941 28.7429H165.792V30H164.578ZM165.814 25.9091C165.814 26.527 165.904 27.0721 166.085 27.5444C166.266 28.0131 166.531 28.3807 166.879 28.647C167.227 28.9098 167.653 29.0412 168.157 29.0412C168.683 29.0412 169.122 28.9027 169.473 28.6257C169.828 28.3452 170.095 27.9687 170.272 27.4964C170.453 27.0206 170.544 26.4915 170.544 25.9091C170.544 25.3338 170.455 24.8153 170.277 24.3537C170.103 23.8885 169.839 23.521 169.484 23.2511C169.132 22.9776 168.69 22.8409 168.157 22.8409C167.646 22.8409 167.216 22.9705 166.868 23.2298C166.52 23.4854 166.258 23.8441 166.08 24.3058C165.902 24.7638 165.814 25.2983 165.814 25.9091ZM176.131 30.1918C175.613 30.1918 175.142 30.0941 174.72 29.8988C174.297 29.6999 173.962 29.4141 173.713 29.0412C173.465 28.6648 173.34 28.2102 173.34 27.6776C173.34 27.2088 173.433 26.8288 173.617 26.5376C173.802 26.2429 174.049 26.0121 174.358 25.8452C174.667 25.6783 175.008 25.554 175.38 25.4723C175.757 25.3871 176.135 25.3196 176.515 25.2699C177.012 25.206 177.415 25.158 177.724 25.1261C178.037 25.0906 178.264 25.032 178.406 24.9503C178.552 24.8686 178.624 24.7266 178.624 24.5241V24.4815C178.624 23.956 178.481 23.5476 178.193 23.2564C177.909 22.9652 177.477 22.8196 176.899 22.8196C176.298 22.8196 175.828 22.951 175.487 23.2138C175.146 23.4766 174.906 23.7571 174.768 24.0554L173.575 23.6293C173.788 23.1321 174.072 22.745 174.427 22.468C174.786 22.1875 175.176 21.9922 175.599 21.8821C176.025 21.7685 176.444 21.7116 176.856 21.7116C177.119 21.7116 177.421 21.7436 177.761 21.8075C178.106 21.8679 178.438 21.994 178.758 22.1857C179.081 22.3775 179.349 22.6669 179.562 23.054C179.775 23.4411 179.881 23.9595 179.881 24.6094V30H178.624V28.892H178.56C178.475 29.0696 178.333 29.2596 178.134 29.462C177.935 29.6644 177.671 29.8366 177.341 29.9787C177.01 30.1207 176.607 30.1918 176.131 30.1918ZM176.323 29.0625C176.82 29.0625 177.239 28.9648 177.58 28.7695C177.925 28.5742 178.184 28.3221 178.358 28.0131C178.536 27.7042 178.624 27.3793 178.624 27.0384V25.8878C178.571 25.9517 178.454 26.0103 178.273 26.0636C178.095 26.1133 177.889 26.1577 177.655 26.1967C177.424 26.2322 177.199 26.2642 176.978 26.2926C176.762 26.3175 176.586 26.3388 176.451 26.3565C176.124 26.3991 175.819 26.4684 175.535 26.5643C175.254 26.6566 175.027 26.7969 174.853 26.9851C174.683 27.1697 174.597 27.4219 174.597 27.7415C174.597 28.1783 174.759 28.5085 175.082 28.7322C175.409 28.9524 175.823 29.0625 176.323 29.0625ZM183.433 19.0909V30H182.176V19.0909H183.433ZM190.125 30V19.0909H193.811C194.667 19.0909 195.366 19.2454 195.91 19.5543C196.456 19.8597 196.861 20.2734 197.124 20.7955C197.387 21.3175 197.518 21.8999 197.518 22.5426C197.518 23.1854 197.387 23.7695 197.124 24.2951C196.865 24.8207 196.464 25.2397 195.92 25.5522C195.377 25.8612 194.681 26.0156 193.832 26.0156H191.19V24.8438H193.79C194.375 24.8438 194.846 24.7425 195.201 24.5401C195.556 24.3377 195.814 24.0643 195.973 23.7198C196.137 23.3718 196.218 22.9794 196.218 22.5426C196.218 22.1058 196.137 21.7152 195.973 21.3707C195.814 21.0263 195.554 20.7564 195.196 20.5611C194.837 20.3622 194.361 20.2628 193.768 20.2628H191.446V30H190.125ZM199.476 30V21.8182H200.69V23.054H200.775C200.925 22.6491 201.195 22.3207 201.585 22.0685C201.976 21.8164 202.416 21.6903 202.906 21.6903C202.998 21.6903 203.114 21.6921 203.252 21.6957C203.391 21.6992 203.496 21.7045 203.567 21.7116V22.9901C203.524 22.9794 203.426 22.9634 203.274 22.9421C203.125 22.9173 202.967 22.9048 202.8 22.9048C202.402 22.9048 202.047 22.9883 201.734 23.1552C201.425 23.3185 201.18 23.5458 200.999 23.837C200.822 24.1246 200.733 24.4531 200.733 24.8224V30H199.476ZM205.057 30V21.8182H206.314V30H205.057ZM205.696 20.4545C205.451 20.4545 205.24 20.3711 205.062 20.2042C204.888 20.0373 204.801 19.8366 204.801 19.6023C204.801 19.3679 204.888 19.1673 205.062 19.0004C205.24 18.8335 205.451 18.75 205.696 18.75C205.941 18.75 206.151 18.8335 206.325 19.0004C206.502 19.1673 206.591 19.3679 206.591 19.6023C206.591 19.8366 206.502 20.0373 206.325 20.2042C206.151 20.3711 205.941 20.4545 205.696 20.4545ZM215.307 21.8182L212.281 30H211.003L207.977 21.8182H209.341L211.599 28.3381H211.685L213.943 21.8182H215.307ZM219.125 30.1918C218.606 30.1918 218.136 30.0941 217.713 29.8988C217.29 29.6999 216.955 29.4141 216.706 29.0412C216.458 28.6648 216.333 28.2102 216.333 27.6776C216.333 27.2088 216.426 26.8288 216.61 26.5376C216.795 26.2429 217.042 26.0121 217.351 25.8452C217.66 25.6783 218.001 25.554 218.374 25.4723C218.75 25.3871 219.128 25.3196 219.508 25.2699C220.005 25.206 220.408 25.158 220.717 25.1261C221.03 25.0906 221.257 25.032 221.399 24.9503C221.545 24.8686 221.618 24.7266 221.618 24.5241V24.4815C221.618 23.956 221.474 23.5476 221.186 23.2564C220.902 22.9652 220.471 22.8196 219.892 22.8196C219.292 22.8196 218.821 22.951 218.48 23.2138C218.139 23.4766 217.9 23.7571 217.761 24.0554L216.568 23.6293C216.781 23.1321 217.065 22.745 217.42 22.468C217.779 22.1875 218.169 21.9922 218.592 21.8821C219.018 21.7685 219.437 21.7116 219.849 21.7116C220.112 21.7116 220.414 21.7436 220.755 21.8075C221.099 21.8679 221.431 21.994 221.751 22.1857C222.074 22.3775 222.342 22.6669 222.555 23.054C222.768 23.4411 222.875 23.9595 222.875 24.6094V30H221.618V28.892H221.554C221.468 29.0696 221.326 29.2596 221.127 29.462C220.929 29.6644 220.664 29.8366 220.334 29.9787C220.004 30.1207 219.6 30.1918 219.125 30.1918ZM219.316 29.0625C219.814 29.0625 220.233 28.9648 220.574 28.7695C220.918 28.5742 221.177 28.3221 221.351 28.0131C221.529 27.7042 221.618 27.3793 221.618 27.0384V25.8878C221.564 25.9517 221.447 26.0103 221.266 26.0636C221.088 26.1133 220.882 26.1577 220.648 26.1967C220.417 26.2322 220.192 26.2642 219.972 26.2926C219.755 26.3175 219.579 26.3388 219.444 26.3565C219.118 26.3991 218.812 26.4684 218.528 26.5643C218.248 26.6566 218.02 26.7969 217.846 26.9851C217.676 27.1697 217.591 27.4219 217.591 27.7415C217.591 28.1783 217.752 28.5085 218.075 28.7322C218.402 28.9524 218.816 29.0625 219.316 29.0625ZM228.493 30.1705C227.726 30.1705 227.065 29.9893 226.511 29.6271C225.957 29.2649 225.531 28.766 225.233 28.1303C224.935 27.4947 224.786 26.7685 224.786 25.9517C224.786 25.1207 224.938 24.3874 225.244 23.7518C225.553 23.1126 225.982 22.6136 226.533 22.255C227.087 21.8928 227.733 21.7116 228.472 21.7116C229.047 21.7116 229.565 21.8182 230.027 22.0312C230.489 22.2443 230.867 22.5426 231.162 22.9261C231.456 23.3097 231.639 23.7571 231.71 24.2685H230.453C230.357 23.8956 230.144 23.5653 229.814 23.2777C229.487 22.9865 229.047 22.8409 228.493 22.8409C228.003 22.8409 227.573 22.9687 227.204 23.2244C226.838 23.4766 226.552 23.8335 226.346 24.2951C226.144 24.7532 226.043 25.2912 226.043 25.9091C226.043 26.5412 226.142 27.0916 226.341 27.5604C226.543 28.0291 226.828 28.3931 227.193 28.6523C227.563 28.9116 227.996 29.0412 228.493 29.0412C228.82 29.0412 229.116 28.9844 229.383 28.8707C229.649 28.7571 229.874 28.5938 230.059 28.3807C230.244 28.1676 230.375 27.9119 230.453 27.6136H231.71C231.639 28.0966 231.464 28.5316 231.183 28.9187C230.906 29.3022 230.538 29.6076 230.08 29.8349C229.626 30.0586 229.097 30.1705 228.493 30.1705ZM234.358 33.0682C234.145 33.0682 233.955 33.0504 233.788 33.0149C233.621 32.983 233.505 32.951 233.441 32.919L233.761 31.8111C234.066 31.8892 234.336 31.9176 234.571 31.8963C234.805 31.875 235.013 31.7702 235.194 31.582C235.379 31.3974 235.547 31.0973 235.7 30.6818L235.934 30.0426L232.909 21.8182H234.272L236.531 28.3381H236.616L238.875 21.8182H240.238L236.765 31.1932C236.609 31.6158 236.416 31.9656 236.185 32.2425C235.954 32.5231 235.686 32.7308 235.38 32.8658C235.079 33.0007 234.738 33.0682 234.358 33.0682ZM252.253 21.8182C252.189 21.2784 251.93 20.8594 251.475 20.5611C251.021 20.2628 250.463 20.1136 249.802 20.1136C249.32 20.1136 248.897 20.1918 248.535 20.348C248.176 20.5043 247.896 20.7191 247.693 20.9925C247.494 21.266 247.395 21.5767 247.395 21.9247C247.395 22.2159 247.464 22.4663 247.603 22.6758C247.745 22.8817 247.926 23.054 248.146 23.1925C248.366 23.3274 248.597 23.4393 248.838 23.5281C249.08 23.6133 249.302 23.6825 249.504 23.7358L250.612 24.0341C250.896 24.1087 251.212 24.2116 251.56 24.343C251.912 24.4744 252.247 24.6538 252.567 24.881C252.89 25.1048 253.157 25.3924 253.366 25.744C253.576 26.0955 253.68 26.527 253.68 27.0384C253.68 27.6278 253.526 28.1605 253.217 28.6364C252.911 29.1122 252.464 29.4904 251.875 29.771C251.289 30.0515 250.577 30.1918 249.739 30.1918C248.957 30.1918 248.281 30.0657 247.709 29.8136C247.141 29.5614 246.693 29.2099 246.367 28.7589C246.044 28.3079 245.861 27.7841 245.818 27.1875H247.182C247.217 27.5994 247.356 27.9403 247.597 28.2102C247.842 28.4766 248.151 28.6754 248.524 28.8068C248.9 28.9347 249.305 28.9986 249.739 28.9986C250.243 28.9986 250.696 28.9169 251.097 28.7536C251.498 28.5866 251.816 28.3558 252.05 28.0611C252.285 27.7628 252.402 27.4148 252.402 27.017C252.402 26.6548 252.301 26.3601 252.098 26.1328C251.896 25.9055 251.63 25.7209 251.299 25.5788C250.969 25.4368 250.612 25.3125 250.229 25.206L248.886 24.8224C248.034 24.5774 247.359 24.2276 246.862 23.7731C246.365 23.3185 246.116 22.7237 246.116 21.9886C246.116 21.3778 246.282 20.8452 246.612 20.3906C246.946 19.9325 247.393 19.5774 247.954 19.3253C248.519 19.0696 249.149 18.9418 249.845 18.9418C250.548 18.9418 251.173 19.0678 251.72 19.32C252.267 19.5685 252.7 19.9094 253.02 20.3427C253.343 20.7759 253.513 21.2678 253.531 21.8182H252.253ZM259.24 21.8182V22.8835H255V21.8182H259.24ZM256.236 19.858H257.493V27.6562C257.493 28.0114 257.544 28.2777 257.647 28.4553C257.754 28.6293 257.889 28.7464 258.052 28.8068C258.219 28.8636 258.395 28.892 258.58 28.892C258.718 28.892 258.832 28.8849 258.92 28.8707C259.009 28.853 259.08 28.8388 259.134 28.8281L259.389 29.9574C259.304 29.9893 259.185 30.0213 259.032 30.0533C258.88 30.0888 258.686 30.1065 258.452 30.1065C258.097 30.1065 257.749 30.0302 257.408 29.8775C257.07 29.7248 256.79 29.4922 256.566 29.1797C256.346 28.8672 256.236 28.473 256.236 27.9972V19.858ZM263.539 30.1918C263.02 30.1918 262.55 30.0941 262.127 29.8988C261.705 29.6999 261.369 29.4141 261.12 29.0412C260.872 28.6648 260.748 28.2102 260.748 27.6776C260.748 27.2088 260.84 26.8288 261.025 26.5376C261.209 26.2429 261.456 26.0121 261.765 25.8452C262.074 25.6783 262.415 25.554 262.788 25.4723C263.164 25.3871 263.542 25.3196 263.922 25.2699C264.419 25.206 264.822 25.158 265.131 25.1261C265.444 25.0906 265.671 25.032 265.813 24.9503C265.959 24.8686 266.032 24.7266 266.032 24.5241V24.4815C266.032 23.956 265.888 23.5476 265.6 23.2564C265.316 22.9652 264.885 22.8196 264.306 22.8196C263.706 22.8196 263.235 22.951 262.894 23.2138C262.553 23.4766 262.314 23.7571 262.175 24.0554L260.982 23.6293C261.195 23.1321 261.479 22.745 261.834 22.468C262.193 22.1875 262.583 21.9922 263.006 21.8821C263.432 21.7685 263.851 21.7116 264.263 21.7116C264.526 21.7116 264.828 21.7436 265.169 21.8075C265.513 21.8679 265.845 21.994 266.165 22.1857C266.488 22.3775 266.756 22.6669 266.969 23.054C267.182 23.4411 267.289 23.9595 267.289 24.6094V30H266.032V28.892H265.968C265.882 29.0696 265.74 29.2596 265.542 29.462C265.343 29.6644 265.078 29.8366 264.748 29.9787C264.418 30.1207 264.015 30.1918 263.539 30.1918ZM263.73 29.0625C264.228 29.0625 264.647 28.9648 264.988 28.7695C265.332 28.5742 265.591 28.3221 265.765 28.0131C265.943 27.7042 266.032 27.3793 266.032 27.0384V25.8878C265.978 25.9517 265.861 26.0103 265.68 26.0636C265.502 26.1133 265.297 26.1577 265.062 26.1967C264.831 26.2322 264.606 26.2642 264.386 26.2926C264.169 26.3175 263.993 26.3388 263.858 26.3565C263.532 26.3991 263.226 26.4684 262.942 26.5643C262.662 26.6566 262.434 26.7969 262.26 26.9851C262.09 27.1697 262.005 27.4219 262.005 27.7415C262.005 28.1783 262.166 28.5085 262.489 28.7322C262.816 28.9524 263.23 29.0625 263.73 29.0625ZM273.141 21.8182V22.8835H268.901V21.8182H273.141ZM270.137 19.858H271.394V27.6562C271.394 28.0114 271.446 28.2777 271.549 28.4553C271.655 28.6293 271.79 28.7464 271.954 28.8068C272.12 28.8636 272.296 28.892 272.481 28.892C272.619 28.892 272.733 28.8849 272.822 28.8707C272.911 28.853 272.982 28.8388 273.035 28.8281L273.291 29.9574C273.205 29.9893 273.086 30.0213 272.934 30.0533C272.781 30.0888 272.587 30.1065 272.353 30.1065C271.998 30.1065 271.65 30.0302 271.309 29.8775C270.972 29.7248 270.691 29.4922 270.467 29.1797C270.247 28.8672 270.137 28.473 270.137 27.9972V19.858ZM278.375 30.1705C277.587 30.1705 276.907 29.9964 276.335 29.6484C275.767 29.2969 275.328 28.8068 275.019 28.1783C274.714 27.5462 274.561 26.8111 274.561 25.973C274.561 25.1349 274.714 24.3963 275.019 23.7571C275.328 23.1143 275.758 22.6136 276.308 22.255C276.862 21.8928 277.508 21.7116 278.247 21.7116C278.673 21.7116 279.094 21.7827 279.509 21.9247C279.925 22.0668 280.303 22.2976 280.644 22.6172C280.985 22.9332 281.257 23.3523 281.459 23.8743C281.661 24.3963 281.763 25.0391 281.763 25.8026V26.3352H275.456V25.2486H280.484C280.484 24.7869 280.392 24.375 280.207 24.0128C280.026 23.6506 279.767 23.3647 279.43 23.1552C279.096 22.9457 278.702 22.8409 278.247 22.8409C277.746 22.8409 277.313 22.9652 276.947 23.2138C276.585 23.4588 276.306 23.7784 276.111 24.1726C275.916 24.5668 275.818 24.9893 275.818 25.4403V26.1648C275.818 26.7827 275.925 27.3065 276.138 27.7362C276.354 28.1623 276.654 28.4872 277.038 28.7109C277.421 28.9311 277.867 29.0412 278.375 29.0412C278.705 29.0412 279.003 28.995 279.27 28.9027C279.54 28.8068 279.772 28.6648 279.968 28.4766C280.163 28.2848 280.314 28.0469 280.42 27.7628L281.635 28.1037C281.507 28.5156 281.292 28.8778 280.99 29.1903C280.688 29.4993 280.316 29.7408 279.872 29.9148C279.428 30.0852 278.929 30.1705 278.375 30.1705ZM283.675 30V21.8182H284.889V23.0966H284.996C285.166 22.6598 285.442 22.3207 285.822 22.0792C286.202 21.8342 286.658 21.7116 287.191 21.7116C287.73 21.7116 288.18 21.8342 288.538 22.0792C288.9 22.3207 289.183 22.6598 289.385 23.0966H289.47C289.68 22.674 289.994 22.3384 290.413 22.0898C290.832 21.8377 291.335 21.7116 291.921 21.7116C292.652 21.7116 293.251 21.9407 293.716 22.3988C294.181 22.8533 294.414 23.5618 294.414 24.5241V30H293.157V24.5241C293.157 23.9205 292.991 23.489 292.661 23.2298C292.331 22.9705 291.942 22.8409 291.495 22.8409C290.919 22.8409 290.474 23.0149 290.158 23.3629C289.842 23.7074 289.684 24.1442 289.684 24.6733V30H288.405V24.3963C288.405 23.9311 288.254 23.5565 287.952 23.2724C287.65 22.9847 287.262 22.8409 286.786 22.8409C286.459 22.8409 286.154 22.9279 285.87 23.1019C285.589 23.2759 285.362 23.5174 285.188 23.8263C285.017 24.1317 284.932 24.4851 284.932 24.8864V30H283.675ZM300.142 30.1705C299.354 30.1705 298.674 29.9964 298.102 29.6484C297.534 29.2969 297.096 28.8068 296.787 28.1783C296.481 27.5462 296.329 26.8111 296.329 25.973C296.329 25.1349 296.481 24.3963 296.787 23.7571C297.096 23.1143 297.525 22.6136 298.076 22.255C298.63 21.8928 299.276 21.7116 300.015 21.7116C300.441 21.7116 300.862 21.7827 301.277 21.9247C301.693 22.0668 302.071 22.2976 302.412 22.6172C302.753 22.9332 303.024 23.3523 303.227 23.8743C303.429 24.3963 303.53 25.0391 303.53 25.8026V26.3352H297.223V25.2486H302.252C302.252 24.7869 302.16 24.375 301.975 24.0128C301.794 23.6506 301.535 23.3647 301.197 23.1552C300.863 22.9457 300.469 22.8409 300.015 22.8409C299.514 22.8409 299.081 22.9652 298.715 23.2138C298.353 23.4588 298.074 23.7784 297.879 24.1726C297.683 24.5668 297.586 24.9893 297.586 25.4403V26.1648C297.586 26.7827 297.692 27.3065 297.905 27.7362C298.122 28.1623 298.422 28.4872 298.805 28.7109C299.189 28.9311 299.635 29.0412 300.142 29.0412C300.473 29.0412 300.771 28.995 301.037 28.9027C301.307 28.8068 301.54 28.6648 301.735 28.4766C301.93 28.2848 302.081 28.0469 302.188 27.7628L303.402 28.1037C303.275 28.5156 303.06 28.8778 302.758 29.1903C302.456 29.4993 302.083 29.7408 301.639 29.9148C301.195 30.0852 300.696 30.1705 300.142 30.1705ZM306.7 25.0781V30H305.443V21.8182H306.657V23.0966H306.764C306.955 22.6811 307.247 22.3473 307.637 22.0952C308.028 21.8395 308.532 21.7116 309.15 21.7116C309.704 21.7116 310.189 21.8253 310.604 22.0526C311.02 22.2763 311.343 22.6172 311.574 23.0753C311.804 23.5298 311.92 24.1051 311.92 24.8011V30H310.663V24.8864C310.663 24.2436 310.496 23.7429 310.162 23.3842C309.828 23.022 309.37 22.8409 308.788 22.8409C308.386 22.8409 308.028 22.9279 307.712 23.1019C307.399 23.2759 307.152 23.5298 306.971 23.8636C306.79 24.1974 306.7 24.6023 306.7 25.0781ZM317.775 21.8182V22.8835H313.535V21.8182H317.775ZM314.771 19.858H316.028V27.6562C316.028 28.0114 316.08 28.2777 316.183 28.4553C316.289 28.6293 316.424 28.7464 316.587 28.8068C316.754 28.8636 316.93 28.892 317.115 28.892C317.253 28.892 317.367 28.8849 317.456 28.8707C317.544 28.853 317.615 28.8388 317.669 28.8281L317.924 29.9574C317.839 29.9893 317.72 30.0213 317.567 30.0533C317.415 30.0888 317.221 30.1065 316.987 30.1065C316.632 30.1065 316.284 30.0302 315.943 29.8775C315.605 29.7248 315.325 29.4922 315.101 29.1797C314.881 28.8672 314.771 28.473 314.771 27.9972V19.858Z" fill="#F26A29"/>
</svg>
