<svg width="16" height="15" viewBox="0 0 16 15" fill="none" xmlns="http://www.w3.org/2000/svg">
<path d="M3.21778 6.49167C4.49778 8.85 6.56 10.7833 9.07556 11.9833L11.0311 10.15C11.28 9.91667 11.6267 9.85 11.9378 9.94167C12.9333 10.25 14 10.4167 15.1111 10.4167C15.3469 10.4167 15.573 10.5045 15.7397 10.6607C15.9064 10.817 16 11.029 16 11.25V14.1667C16 14.3877 15.9064 14.5996 15.7397 14.7559C15.573 14.9122 15.3469 15 15.1111 15C11.1034 15 7.25983 13.5074 4.42594 10.8507C1.59206 8.19391 0 4.59057 0 0.833333C0 0.61232 0.0936505 0.400358 0.260349 0.244078C0.427048 0.0877973 0.653141 0 0.888889 0H4C4.23575 0 4.46184 0.0877973 4.62854 0.244078C4.79524 0.400358 4.88889 0.61232 4.88889 0.833333C4.88889 1.875 5.06667 2.875 5.39556 3.80833C5.49333 4.1 5.42222 4.425 5.17333 4.65833L3.21778 6.49167Z" fill="black" fill-opacity="0.5"/>
</svg>
